<svg width="156" height="71" viewBox="0 0 156 71" fill="none" xmlns="http://www.w3.org/2000/svg">
<path d="M112.211 32.9997H154.451V42.5037H112.211V32.9997ZM128.627 16.6797H138.035V58.8237H128.627V16.6797Z" fill="#55CE5B"/>
<path d="M74.3392 1.22656C83.7472 1.22656 90.9792 4.17056 96.0352 10.0586C101.091 15.9466 103.619 24.3626 103.619 35.3066C103.619 46.3146 101.091 54.7946 96.0352 60.7466C90.9792 66.6346 83.7472 69.5786 74.3392 69.5786C64.8672 69.5786 57.5712 66.6346 52.4512 60.7466C47.3952 54.7946 44.8672 46.3466 44.8672 35.4026C44.8672 24.3946 47.3952 15.9466 52.4512 10.0586C57.5712 4.17056 64.8672 1.22656 74.3392 1.22656ZM74.3392 12.3626C69.6032 12.3626 66.0832 14.1866 63.7792 17.8346C61.5392 21.4826 60.4192 27.3386 60.4192 35.4026C60.4192 43.3386 61.5392 49.1626 63.7792 52.8746C66.0832 56.5866 69.6032 58.4426 74.3392 58.4426C79.0112 58.4426 82.4672 56.5866 84.7072 52.8746C86.9472 49.1626 88.0672 43.3386 88.0672 35.4026C88.0672 27.3386 86.9472 21.4826 84.7072 17.8346C82.4672 14.1866 79.0112 12.3626 74.3392 12.3626Z" fill="#55CE5B"/>
<path d="M1 1.79688H29.704V68.9969H14.536V7.55688L21.16 14.1809H1V1.79688Z" fill="#55CE5B"/>
<path fill-rule="evenodd" clip-rule="evenodd" d="M112.211 32.9997V42.5037H128.627V58.8237H138.035V42.5037H154.451V32.9997H138.035V16.6797H128.627V32.9997H112.211ZM127.627 31.9997H111.211V43.5037H127.627V59.8237H139.035V43.5037H155.451V31.9997H139.035V15.6797H127.627V31.9997Z" fill="#55CE5B"/>
<path fill-rule="evenodd" clip-rule="evenodd" d="M96.7973 61.394L96.7939 61.398C91.5078 67.5539 83.9711 70.5786 74.3392 70.5786C64.6453 70.5786 57.0468 67.5554 51.6966 61.4027L51.689 61.394L51.689 61.394C46.4278 55.2004 43.8672 46.4894 43.8672 35.4026C43.8672 24.2543 46.4267 15.5395 51.6925 9.40709L51.6966 9.40237C57.0468 3.24969 64.6453 0.226562 74.3392 0.226562C83.9711 0.226562 91.5078 3.25119 96.7939 9.40709C102.059 15.5385 104.619 24.2206 104.619 35.3066C104.619 46.4557 102.059 55.1995 96.7973 61.394ZM64.6281 18.3632C62.5398 21.768 61.4192 27.3897 61.4192 35.4026C61.4192 43.2815 62.538 48.8783 64.6321 52.3525C66.736 55.7386 69.9165 57.4426 74.3392 57.4426C78.6937 57.4426 81.8084 55.7428 83.851 52.3579C85.9472 48.8841 87.0672 43.2856 87.0672 35.4026C87.0672 27.3855 85.9454 21.7621 83.855 18.3578C81.816 15.0372 78.7017 13.3626 74.3392 13.3626C69.9087 13.3626 66.7285 15.0411 64.6281 18.3632ZM63.7792 52.8746C61.5392 49.1626 60.4192 43.3386 60.4192 35.4026C60.4192 27.3386 61.5392 21.4826 63.7792 17.8346C66.0832 14.1866 69.6032 12.3626 74.3392 12.3626C79.0112 12.3626 82.4672 14.1866 84.7072 17.8346C86.9472 21.4826 88.0672 27.3386 88.0672 35.4026C88.0672 43.3386 86.9472 49.1626 84.7072 52.8746C82.4672 56.5866 79.0112 58.4426 74.3392 58.4426C69.6032 58.4426 66.0832 56.5866 63.7792 52.8746ZM96.0352 10.0586C90.9792 4.17056 83.7472 1.22656 74.3392 1.22656C64.8672 1.22656 57.5712 4.17056 52.4512 10.0586C47.3952 15.9466 44.8672 24.3946 44.8672 35.4026C44.8672 46.3466 47.3952 54.7946 52.4512 60.7466C57.5712 66.6346 64.8672 69.5786 74.3392 69.5786C83.7472 69.5786 90.9792 66.6346 96.0352 60.7466C101.091 54.7946 103.619 46.3146 103.619 35.3066C103.619 24.3626 101.091 15.9466 96.0352 10.0586Z" fill="#55CE5B"/>
<path fill-rule="evenodd" clip-rule="evenodd" d="M0 0.796875H30.704V69.9969H13.536V15.1809H0V0.796875ZM14.536 14.1809V68.9969H29.704V1.79688H1V14.1809H14.536Z" fill="#55CE5B"/>
</svg>
