<svg width="112" height="56" viewBox="0 0 112 56" fill="none" xmlns="http://www.w3.org/2000/svg">
<g clip-path="url(#clip0_560_1344)">
<path d="M8 37.4111C8.1178 37.4164 8.23559 37.4258 8.35339 37.4258C10.5817 37.4258 12.8096 37.4258 15.0371 37.4258H15.4611C15.4611 37.2757 15.4611 37.162 15.4611 37.0488C15.4611 36.0814 15.4947 35.1141 15.4558 34.1473C15.407 32.9161 16.4606 31.4504 18.1651 31.4404C18.9596 31.4369 19.7554 31.4404 20.5499 31.4404C20.8933 31.4404 20.8956 31.4433 20.8962 31.7816C20.8986 33.5405 20.9005 35.2993 20.9021 37.0582C20.9021 37.4258 20.9021 37.4264 21.2737 37.4276H22.4853V37.0172C22.4853 34.4668 22.4872 31.9169 22.4911 29.3673C22.4941 28.088 23.3387 27.0145 24.5749 26.7196C24.776 26.6746 24.9814 26.652 25.1875 26.6522C26.012 26.6446 26.8366 26.6469 27.6612 26.6481C27.7486 26.654 27.8357 26.6643 27.9221 26.6792V27.0661L27.925 37.0594C27.925 37.4252 27.925 37.4258 28.2973 37.427C28.5623 37.427 28.8273 37.4223 29.0924 37.427C29.2514 37.4305 29.3321 37.3736 29.3191 37.2054C29.3121 37.1086 29.3191 37.0101 29.3191 36.9122C29.3215 33.16 29.324 29.4078 29.3268 25.6555C29.3268 24.3423 30.1272 23.2899 31.3593 22.9657C31.5591 22.9129 31.7646 22.8845 31.9713 22.8812C32.8247 22.8713 33.6793 22.876 34.5327 22.8771C34.5916 22.8771 34.647 22.8894 34.7348 22.8994C34.7424 23.0389 34.7566 23.1709 34.7566 23.3028C34.7597 27.8551 34.7622 32.4086 34.7642 36.9632C34.7642 38.555 34.7913 40.1467 34.7942 41.7379C34.8033 42.0797 34.7761 42.4214 34.713 42.7575C34.4674 43.8949 33.6616 44.5363 32.6304 44.9162C32.2248 45.0619 31.797 45.1367 31.3658 45.1372C25.4875 45.1509 19.6085 45.154 13.729 45.1466C10.4973 45.1466 8.36163 42.7727 8.04476 40.3355C8.03414 40.2972 8.01912 40.2602 8 40.2253V37.4111Z" fill="#A3EBA7"/>
<path d="M104.002 30.9052C103.54 30.8173 103.074 30.7487 102.618 30.6379C101.246 30.3055 99.8607 30.2961 98.4649 30.4128C93.4309 30.8319 88.7909 32.5128 84.3295 34.7718C84.2802 34.7943 84.2403 34.833 84.2164 34.8814C84.2735 34.872 84.33 34.8589 84.3854 34.8421C88.3145 33.3764 92.3707 32.4091 96.5154 31.7935C97.3782 31.6656 98.2475 31.5801 99.1127 31.4657C99.2818 31.4434 99.3601 31.4927 99.4137 31.6522C100.126 33.7522 100.84 35.8511 101.557 37.9489C101.575 38.0174 101.588 38.0869 101.598 38.157C101.169 38.1154 100.764 38.0743 100.361 38.0397C98.1416 37.837 95.9116 37.777 93.6847 37.8603C92.5769 37.9026 91.4702 37.9711 90.3653 38.0585C87.5777 38.2799 84.8137 38.7341 82.1026 39.4163C78.1982 40.3972 74.4865 41.8465 71.0428 43.9419C70.6246 44.1963 70.2182 44.4695 69.8059 44.7328C69.7462 44.7744 69.6743 44.795 69.6016 44.7914C69.6557 44.7051 69.7147 44.6219 69.7783 44.5422C70.3242 43.9284 70.879 43.3216 71.4168 42.7007C71.5246 42.5818 71.5911 42.4316 71.6064 42.2721C71.6842 38.646 72.7549 35.3164 74.622 32.2261C76.3936 29.2947 78.7124 26.8446 81.3769 24.7047C84.4691 22.2206 87.8721 20.2589 91.5279 18.7246C91.6163 18.6876 91.7046 18.6442 91.8153 18.5915C91.7488 18.4578 91.6975 18.3458 91.6386 18.2397C89.0699 13.3931 86.5012 8.54646 83.9325 3.69983C83.7487 3.35392 83.7517 3.34806 83.3659 3.4319C82.4418 3.62713 81.6055 4.03226 80.7986 4.5048C79.047 5.53022 77.4779 6.79718 75.969 8.13977C75.1633 8.85504 74.387 9.60255 73.5966 10.3348C73.5728 10.3609 73.544 10.3819 73.512 10.3968C73.4799 10.4117 73.4452 10.4201 73.4099 10.4216C73.7132 10.0446 74.01 9.66294 74.3198 9.29124C75.8323 7.47375 77.4514 5.76121 79.3155 4.29257C80.2956 3.51984 81.3275 2.81982 82.5119 2.39183C82.9872 2.22005 83.4931 2.13328 83.9843 2.00781H84.5733C84.6048 2.08784 84.6406 2.16612 84.6805 2.24233C85.6484 3.89761 86.617 5.55171 87.5865 7.20465C87.6109 7.24391 87.6385 7.28116 87.6689 7.31604L91.4172 5.81222C91.4938 5.95879 91.5591 6.07781 91.6192 6.19975C94.4463 11.9223 97.2765 17.6446 100.11 23.3668C100.32 23.7901 100.626 24.1659 100.838 24.5886C101.844 26.599 102.833 28.6187 103.829 30.6338C103.882 30.7273 103.939 30.8179 104.002 30.9052ZM72.7272 40.8604L72.6778 40.8082C78.8443 31.2904 87.4398 25.3736 98.7694 23.4582C96.0389 18.3611 93.31 13.2686 90.5826 8.18081L88.6885 9.08955L94.6106 19.6128C94.464 19.6749 94.3862 19.713 94.3043 19.7418C90.7534 20.9759 87.4422 22.6879 84.3142 24.7539C81.2603 26.7707 78.5175 29.1335 76.2693 32.0368C74.0948 34.8451 72.61 37.9676 71.9209 41.4549C71.8703 41.7093 71.8326 41.9667 71.789 42.2229L71.8438 42.2569C71.9168 42.1983 71.9952 42.1496 72.0629 42.088C73.3802 40.8858 74.8012 39.8011 76.3094 38.8465C77.0951 38.3475 77.9279 37.9184 78.6894 37.3866C80.4358 36.1689 82.2421 35.0485 84.0945 34.0014C87.3586 32.1558 90.7628 30.6361 94.4109 29.708C96.4682 29.1851 98.5479 28.7952 100.684 28.794C100.756 28.7888 100.829 28.7791 100.9 28.7647C100.883 28.7046 100.862 28.6459 100.837 28.5888C100.135 27.3455 99.4325 26.1022 98.7305 24.8589C98.6622 24.7375 98.5809 24.7023 98.4437 24.7229C98.0461 24.7815 97.645 24.8167 97.248 24.8806C93.7257 25.4499 90.3115 26.5523 87.1241 28.1497C82.0696 30.6625 77.8513 34.1884 74.387 38.6249C73.8163 39.3565 73.2791 40.1146 72.7272 40.8604Z" fill="#A3EBA7"/>
<path d="M51.2741 37.4314V37.0339C51.2741 34.4742 51.2757 31.9141 51.2788 29.3536C51.2763 28.7424 51.4824 28.1485 51.8633 27.6691C52.2443 27.1898 52.7775 26.8535 53.3756 26.7153C53.5771 26.6726 53.7827 26.6517 53.9887 26.6532C54.8133 26.6461 55.6379 26.6491 56.4624 26.6497C56.5296 26.6497 56.5973 26.6631 56.698 26.6737V37.398H58.1057V37.0275C58.1057 33.2268 58.1076 29.4261 58.1115 25.6254C58.1115 24.3485 58.9361 23.2803 60.1518 22.9707C60.3511 22.9186 60.5559 22.8903 60.7619 22.8863C61.6154 22.8763 62.47 22.881 63.3234 22.8822C63.3823 22.8822 63.4376 22.8939 63.5254 22.9039C63.5325 23.044 63.5448 23.1759 63.5454 23.3084C63.5478 27.8517 63.5499 32.3951 63.5519 36.9384C63.5519 38.4422 63.5749 39.9466 63.5761 41.4528C63.5761 41.872 63.5849 42.3 63.5066 42.708C63.2833 43.8765 62.4664 44.5396 61.4104 44.9201C60.9658 45.0714 60.4985 45.1465 60.0287 45.1423C54.3456 45.1569 48.6614 45.1487 42.9796 45.1552C42.1804 45.1552 41.3894 45.1129 40.6272 44.862C39.5289 44.5016 38.5695 43.8116 37.881 42.8866C37.1924 41.9617 36.8085 40.8472 36.7818 39.6963C36.763 38.8075 36.7818 37.9181 36.7818 37.0292C36.7889 28.3823 36.7956 19.7354 36.8018 11.0885C36.8018 10.5333 36.8018 10.5333 37.3508 10.5825C39.8339 10.8035 41.9548 12.6568 42.4937 15.101C42.5798 15.5016 42.6227 15.9102 42.6215 16.3199C42.6337 23.2084 42.6407 30.0966 42.6427 36.9847C42.6427 37.4537 42.5673 37.4344 43.1086 37.435C43.383 37.435 43.6587 37.4226 43.9331 37.4385C44.1687 37.4525 44.2359 37.3535 44.2341 37.1307C44.2265 36.2026 44.2377 35.2739 44.2341 34.3458C44.23 33.7361 44.336 33.1592 44.6953 32.6503C45.2466 31.8682 46.0028 31.4601 46.9652 31.4502C47.7603 31.4425 48.5554 31.4502 49.35 31.4502C49.6727 31.4502 49.6786 31.456 49.6792 31.7796C49.6827 33.5287 49.6853 35.2776 49.6868 37.0263C49.6868 37.4367 49.6868 37.4367 50.1109 37.4367L51.2741 37.4314Z" fill="#A3EBA7"/>
<path d="M65.5275 45.0876V44.7182C65.5275 36.9986 65.5593 29.279 65.5157 21.5599C65.501 19.0688 67.3239 16.1485 70.704 15.7305C70.9066 15.7059 71.1163 15.7276 71.3589 15.7276C71.3648 15.8302 71.3766 15.9328 71.3766 16.0348C71.3797 23.8809 71.3813 31.7273 71.3813 39.5742C71.3813 41.8249 69.7069 44.0399 67.4511 44.8085C66.8444 45.0125 66.2266 45.1497 65.5275 45.0876Z" fill="#A3EBA7"/>
<path d="M42.5083 50.4901C42.2003 50.4901 41.9081 50.4953 41.6166 50.486C41.5855 50.4806 41.5558 50.4691 41.5292 50.4522C41.5026 50.4352 41.4797 50.4133 41.4617 50.3875C41.3304 50.1998 40.7455 50.0873 40.5753 50.2374C40.5148 50.2997 40.4785 50.3813 40.4728 50.4678C40.4581 50.6818 40.4657 50.8975 40.4663 51.1127C40.4663 51.1995 40.474 51.2886 40.4793 51.3965H43.8541V49.114H44.9308V51.3929H46.5027V47.5023H47.5694V52.4705C47.4651 52.4758 47.3609 52.4846 47.2572 52.4846C44.2051 52.4846 41.1525 52.4893 38.1004 52.4782C37.8554 52.4782 37.6116 52.3668 37.3654 52.3199C37.2607 52.2981 37.1528 52.2959 37.0473 52.3134C36.7911 52.3609 36.5385 52.4776 36.2817 52.4782C31.3649 52.4879 26.4479 52.4901 21.5308 52.4846C21.4259 52.4846 21.3205 52.4764 21.1815 52.4699V51.7553C21.1815 51.2956 21.1774 50.8366 21.1815 50.3775C21.1886 49.6417 21.7469 49.0742 22.4814 49.0642C23.1375 49.056 23.7942 49.0642 24.4904 49.0642V51.4H26.1737V49.1375H27.2615V51.3976H28.9165C28.9165 51.115 28.9283 50.8448 28.9165 50.5768C28.8671 49.5971 29.5726 49.012 30.4479 49.0578C31.0427 49.0882 31.6411 49.0636 32.2678 49.0636V51.3912H33.9605V49.1322H35.0466V51.4123C35.5419 51.4123 36.0001 51.4199 36.4601 51.4088C36.6574 51.4041 36.6763 51.2382 36.6786 51.0869C36.6828 50.7744 36.6786 50.4613 36.6786 50.1488V47.5H37.7247C37.7311 47.6173 37.7429 47.7345 37.7435 47.8465C37.7435 48.9018 37.7435 49.9571 37.7435 51.0124C37.7435 51.3847 37.7788 51.4187 38.1458 51.4228C38.5463 51.4228 38.9474 51.4228 39.3726 51.4228C39.385 51.3138 39.4009 51.2305 39.4021 51.1467C39.4062 50.9122 39.3968 50.6777 39.4068 50.4432C39.4415 49.6224 39.961 49.1264 40.7791 49.1228C40.9558 49.1228 41.1325 49.1187 41.3092 49.1228C42.0136 49.1469 42.5478 49.732 42.5083 50.4901ZM31.177 51.4017V50.1453C30.8572 50.1453 30.5545 50.1242 30.2576 50.1565C30.1587 50.1676 30.0067 50.3083 29.9979 50.4015C29.9655 50.7257 29.9855 51.0552 29.9855 51.4017H31.177ZM23.4367 50.1418C23.0998 50.1418 22.8183 50.1383 22.5362 50.1418C22.3512 50.1453 22.2482 50.2374 22.2505 50.4349C22.254 50.6976 22.254 50.9599 22.2505 51.2217C22.2505 51.3501 22.2917 51.4234 22.4343 51.4217C22.7076 51.4176 22.9814 51.431 23.2535 51.4129C23.3183 51.4082 23.4261 51.3109 23.4302 51.2516C23.445 50.8946 23.4367 50.5393 23.4367 50.1418Z" fill="#A3EBA7"/>
<path d="M89.8559 52.4772H71.4516C71.4379 52.4025 71.4288 52.3272 71.4245 52.2514C71.4245 51.6259 71.4186 51.0009 71.4245 50.3753C71.4229 50.2038 71.4556 50.0337 71.5206 49.8748C71.5855 49.716 71.6815 49.5715 71.803 49.4499C71.9244 49.3282 72.0689 49.2318 72.2281 49.1661C72.3873 49.1004 72.5579 49.0668 72.7303 49.0673C73.3858 49.0597 74.0413 49.0673 74.7269 49.0673V51.3955H76.4208V49.6671H77.5009V51.3673L77.5657 51.3872C77.6015 51.3193 77.6336 51.2494 77.6617 51.1779C77.7854 50.808 77.8897 50.4304 78.031 50.064C78.2896 49.3986 78.7131 49.1259 79.4322 49.1224C79.9034 49.1224 80.3746 49.1189 80.8457 49.1224C81.5949 49.1301 82.155 49.6923 82.165 50.4451C82.1692 50.7552 82.165 51.066 82.165 51.399H83.8395V49.1125H84.9262V51.416C85.4333 51.416 85.9097 51.4213 86.3856 51.4078C86.431 51.4078 86.507 51.2905 86.5105 51.226C86.5258 50.9628 86.5105 50.6984 86.5199 50.4351C86.5405 49.6055 87.0912 49.0673 87.9217 49.0638C88.5584 49.0609 89.195 49.0638 89.8559 49.0638V52.4772ZM78.7243 51.4048H81.0802C81.0802 51.0736 81.0849 50.764 81.0802 50.4545C81.076 50.2786 80.9741 50.1901 80.7969 50.1901C80.3168 50.1901 79.8362 50.1795 79.3574 50.1977C79.2532 50.2018 79.0965 50.2856 79.0629 50.3736C78.9292 50.6913 78.8403 51.0302 78.7231 51.4019L78.7243 51.4048ZM88.7845 50.1478C88.4665 50.1478 88.182 50.1285 87.9011 50.1578C87.7915 50.1695 87.6131 50.2839 87.6066 50.3648C87.5736 50.7077 87.5924 51.0548 87.5924 51.3984H88.7845V50.1478ZM73.675 50.1478C73.3381 50.1478 73.056 50.1443 72.7738 50.1478C72.5877 50.1514 72.4888 50.2469 72.4911 50.441C72.4947 50.7036 72.4947 50.9659 72.4911 51.2278C72.4911 51.3585 72.5377 51.4265 72.6778 51.4248C72.9511 51.4207 73.225 51.4318 73.4971 51.4171C73.556 51.4136 73.6655 51.331 73.6673 51.2811C73.6803 50.9141 73.6726 50.5471 73.6726 50.1449L73.675 50.1478Z" fill="#A3EBA7"/>
<path d="M70.4065 9.55305C70.3335 9.57474 70.2599 9.59468 70.1874 9.61813C69.9825 9.68379 69.7716 9.73538 69.5737 9.8204C68.467 10.2894 68.2091 11.0844 69.0095 12.162C69.1055 12.291 69.2091 12.2793 69.344 12.25C69.8776 12.1245 70.413 12.0051 70.9502 11.8917C71.0679 11.8659 71.1969 11.8742 71.3695 11.8642C71.3695 12.206 71.3695 12.515 71.3695 12.8245C71.3695 13.1341 71.3565 13.4307 71.3766 13.7327C71.3913 13.9578 71.2941 14.0334 71.0886 14.0809C69.9106 14.3518 68.7645 14.7258 67.7137 15.3432C66.8303 15.8615 66.0646 16.5029 65.5475 17.4415V17.0581C65.5475 16.6776 65.554 16.2959 65.5475 15.9154C65.5269 14.7815 66.0275 13.9297 66.9575 13.3059C67.0788 13.2238 67.2025 13.1446 67.325 13.0637C67.3394 13.0468 67.3524 13.0288 67.3639 13.0098C67.3262 12.933 67.2755 12.8421 67.2355 12.7471C67.0294 12.2529 66.7684 11.7721 66.6324 11.2591C66.3479 10.1862 66.7696 9.5554 67.8692 9.37541C68.7191 9.23587 69.5661 9.34316 70.4065 9.55305Z" fill="#A3EBA7"/>
<path d="M60.0078 52.4881V47.5H61.0368C61.0438 47.6284 61.0544 47.7427 61.055 47.8565C61.055 48.9405 61.0615 50.0257 61.0509 51.108C61.0509 51.3425 61.1098 51.4404 61.3613 51.4287C61.7736 51.4099 62.1858 51.424 62.6505 51.424V49.6564H63.7054V51.4152C63.971 51.4152 64.2025 51.4305 64.4304 51.4105C64.6195 51.3941 64.6413 51.2346 64.6419 51.0787C64.6419 50.6003 64.6419 50.1219 64.6419 49.6435V49.311H65.6873C65.6944 49.46 65.7056 49.5936 65.7067 49.7273C65.7067 50.177 65.7032 50.6261 65.7103 51.0758C65.7144 51.3519 65.7845 51.4135 66.0637 51.4246C66.132 51.4246 66.2015 51.4211 66.2698 51.4246C66.5113 51.4416 66.6037 51.3232 66.602 51.0916C66.5973 50.5639 66.602 50.0363 66.602 49.5086V49.1393H67.6462C67.6533 49.2225 67.6663 49.3063 67.6668 49.3902C67.6668 49.9859 67.6716 50.5815 67.6668 51.1772C67.6684 51.3484 67.6359 51.5182 67.5713 51.6768C67.5066 51.8355 67.4111 51.9798 67.2901 52.1016C67.1692 52.2233 67.0253 52.32 66.8666 52.3862C66.708 52.4523 66.5378 52.4866 66.3658 52.4869C65.993 52.4952 65.6207 52.511 65.2821 52.2982C65.2279 52.2636 65.1219 52.2982 65.0424 52.3158C64.7773 52.3703 64.5123 52.4764 64.2496 52.4799C62.945 52.4969 61.6405 52.4875 60.3359 52.4875L60.0078 52.4881Z" fill="#A3EBA7"/>
<path d="M55.4834 53.9271C55.438 53.9611 55.4304 53.9722 55.4245 53.9722C54.465 53.9722 53.5015 54.0191 52.5462 53.9523C51.8465 53.9036 51.4047 53.3115 51.4 52.6126C51.3965 52.0574 51.4 51.5022 51.4 50.9218H52.4825V51.9771C52.4825 52.1917 52.4796 52.4068 52.4825 52.622C52.4878 52.7979 52.5691 52.9333 52.7611 52.9362C53.2983 52.9439 53.8354 52.9362 54.4203 52.9362V49.6589H55.4675V51.4178C55.7243 51.4178 55.9475 51.4383 56.1642 51.4119C56.371 51.3867 56.4039 51.2108 56.4034 51.0326C56.4034 50.5735 56.4034 50.1139 56.4034 49.6548V49.3159H57.4476C57.4547 49.4238 57.467 49.5276 57.4676 49.6313C57.4676 50.1098 57.4676 50.5888 57.4712 51.0672C57.4747 51.3744 57.5254 51.4189 57.8381 51.4254C57.897 51.4254 57.9559 51.4254 58.0148 51.4254C58.304 51.4154 58.4012 51.324 58.4041 51.0337C58.4088 50.5161 58.4041 49.9984 58.4041 49.4807V49.1406H59.4307C59.4485 49.2047 59.4605 49.2702 59.4666 49.3364C59.4666 49.9321 59.4825 50.5289 59.4666 51.124C59.4425 51.9554 58.8835 52.4825 58.0531 52.4907C57.6997 52.4907 57.3463 52.5118 57.03 52.2978C57.0061 52.2837 56.9791 52.2755 56.9514 52.2738C56.9237 52.2721 56.8959 52.2769 56.8704 52.2878C56.4999 52.5329 56.0824 52.4889 55.6724 52.4912C55.6241 52.4912 55.5764 52.4989 55.484 52.5071V53.9259L55.4834 53.9271Z" fill="#A3EBA7"/>
<path d="M48.1797 47.5H49.1921V52.4711H48.1797V47.5Z" fill="#A3EBA7"/>
<path d="M68.2656 47.5H69.2846V52.4658H68.2656V47.5Z" fill="#A3EBA7"/>
<path d="M68.2678 47.143C68.1788 46.7637 68.3396 46.474 68.4786 46.2079C68.6105 45.954 68.8991 45.9704 69.1854 46.0015V46.4119C69.1053 46.5233 68.832 46.3621 68.8679 46.6546L69.2413 46.6845C69.3727 47.0761 69.3273 47.1442 68.9398 47.1459L68.2678 47.143Z" fill="#A3EBA7"/>
<path d="M22.0469 48.4228V47.5H22.9521V48.4228H22.0469Z" fill="#A3EBA7"/>
<path d="M23.2891 47.5H24.1849V48.4293H23.2891V47.5Z" fill="#A3EBA7"/>
<path d="M43.2969 47.5H44.2015V48.4246H43.2969V47.5Z" fill="#A3EBA7"/>
<path d="M45.3279 48.4283H44.4297V47.5078H45.3279V48.4283Z" fill="#A3EBA7"/>
<path d="M73.1937 47.5078V48.4242H72.2891V47.5078H73.1937Z" fill="#A3EBA7"/>
<path d="M73.5234 47.5H74.4216V48.4216H73.5234V47.5Z" fill="#A3EBA7"/>
<path d="M83.9219 48.43V47.5078H84.826V48.43H83.9219Z" fill="#A3EBA7"/>
<path d="M26.5391 53.9998H25.625V53.0781H26.5391V53.9998Z" fill="#A3EBA7"/>
<path d="M26.7969 53.9904V53.0781H27.7068V53.9904H26.7969Z" fill="#A3EBA7"/>
<path d="M34.3304 53.0781V53.9921H33.4062V53.0781H34.3304Z" fill="#A3EBA7"/>
<path d="M34.5703 53.0625H35.4667V53.9929H34.5703V53.0625Z" fill="#A3EBA7"/>
</g>
<defs>
<clipPath id="clip0_560_1344">
<rect width="96" height="52" fill="white" transform="translate(8 2)"/>
</clipPath>
</defs>
</svg>
