<svg width="165" height="121" viewBox="0 0 165 121" fill="none" xmlns="http://www.w3.org/2000/svg">
<path d="M20.6153 62.3363C21.6307 63.2892 22.7232 64.1724 23.8925 64.9863L1.53701 119.811L1.25615 120.5H2H38.6223H38.9004L39.0471 120.264L73.5152 64.7585L73.5164 64.7566C76.1128 60.5333 78.4208 56.169 80.4403 51.6639L80.4404 51.6639L80.4447 51.6537C82.4821 46.8248 83.5 41.7125 83.5 36.3215C83.5 24.7146 79.7239 15.8664 72.1157 9.86474C64.8427 3.62151 56.2554 0.5 46.3777 0.5C35.6362 0.5 26.7468 3.90395 19.7503 10.7303C12.7447 17.2847 9.25532 25.9727 9.25532 36.7421C9.25532 46.4215 13.0538 54.9568 20.6082 62.3296L20.6082 62.3296L20.6153 62.3363ZM101.615 62.3363C102.631 63.2892 103.723 64.1724 104.892 64.9863L82.537 119.811L82.2561 120.5H83H119.622H119.9L120.047 120.264L154.515 64.7585L154.516 64.7566C157.113 60.5333 159.421 56.169 161.44 51.6639L161.44 51.6639L161.445 51.6537C163.482 46.8248 164.5 41.7125 164.5 36.3215C164.5 24.7146 160.724 15.8664 153.116 9.86475C145.843 3.62151 137.255 0.5 127.378 0.5C116.636 0.5 107.747 3.90399 100.75 10.7305C93.7447 17.2848 90.2553 25.9728 90.2553 36.7421C90.2553 46.4215 94.0538 54.9568 101.608 62.3296L101.608 62.3296L101.615 62.3363Z" fill="#F9FEF1" stroke="#F9FEF1"/>
</svg>
