<svg width="86" height="56" viewBox="0 0 86 56" fill="none" xmlns="http://www.w3.org/2000/svg">
<path d="M33.4497 32.2556H41.6894C41.6894 31.2465 41.6401 30.3047 41.6997 29.371C41.8225 27.4202 43.3074 26.1025 45.2603 26.1468C47.136 26.1894 48.5168 27.4894 48.6303 29.3772C48.6833 30.264 48.6396 31.1587 48.6396 32.2316C49.4425 32.268 50.1282 32.3256 50.8047 32.3265C59.8365 32.333 68.8676 32.3363 77.8982 32.3363C80.1182 32.3363 81.5705 33.3028 81.9222 34.9237C82.4265 37.2434 80.8113 39.0373 78.1243 39.0444C70.2735 39.0648 62.4227 39.0843 54.5728 39.0338C52.0188 39.0169 49.4667 38.6684 46.9137 38.6791C43.982 38.687 41.0521 38.9673 38.1185 39.0417C35.5227 39.1082 32.924 39.0781 30.3272 39.0479C27.857 39.0205 26.5191 37.7347 26.5126 35.3707C26.4958 29.2445 26.4958 23.1178 26.5126 16.9904C26.5181 14.8126 27.964 13.3548 30.0156 13.3752C32.0671 13.3956 33.4376 14.8552 33.4451 17.0702C33.4609 22.0581 33.4497 27.0504 33.4497 32.2556Z" fill="#A3EBA7"/>
<path d="M13.2371 39.3388C11.2926 39.3388 9.34615 39.3654 7.40252 39.3326C4.94065 39.2918 3.54876 37.9945 3.5255 35.689C3.49387 32.5455 3.48921 29.4021 3.5255 26.2595C3.55248 24.0959 4.90344 22.772 7.14573 22.7489C11.2122 22.7087 15.2794 22.7087 19.3471 22.7489C21.6052 22.7666 23.0092 24.0311 23.0585 26.1894C23.133 29.387 23.1255 32.5881 23.0585 35.7866C23.0139 38.0034 21.5848 39.29 19.2439 39.3335C17.2463 39.3672 15.2412 39.3388 13.2371 39.3388ZM15.8934 32.5305V29.5502H10.7139V32.5305H15.8934Z" fill="#A3EBA7"/>
<path d="M40.59 41.7108C43.8343 41.7108 47.0796 41.6895 50.323 41.7179C52.8202 41.7436 54.2968 43.0232 54.2968 45.0759C54.2968 47.1287 52.7979 48.4074 50.296 48.4154C43.6901 48.4361 37.0842 48.4361 30.4783 48.4154C27.9987 48.4074 26.511 47.1039 26.5156 45.052C26.5156 43.0125 28.0043 41.7392 30.5034 41.7188C33.8659 41.6904 37.2284 41.7108 40.59 41.7108Z" fill="#A3EBA7"/>
<path d="M68.0945 20.0479C64.7916 20.0479 61.4886 20.0674 58.1857 20.0417C55.734 20.0231 54.1691 18.6868 54.1719 16.6881C54.1747 14.6894 55.7275 13.3619 58.1978 13.3566C64.8037 13.3395 71.4096 13.3395 78.0155 13.3566C80.5174 13.3637 81.9902 14.6371 81.9893 16.6969C81.9884 18.7568 80.5146 20.0204 78.0053 20.0408C74.7014 20.0674 71.3975 20.0479 68.0945 20.0479Z" fill="#A3EBA7"/>
<path d="M68.0251 29.3938C64.7817 29.3938 61.5383 29.4106 58.2949 29.3893C55.7037 29.3716 54.1201 28.0433 54.1732 25.9869C54.2234 23.9856 55.7632 22.7459 58.267 22.7424C64.8127 22.7317 71.3585 22.7317 77.9042 22.7424C80.4833 22.7424 81.9375 23.9128 81.9831 25.9621C82.0306 28.1204 80.5875 29.3689 77.9303 29.3884C74.6301 29.4124 71.3271 29.3946 68.0251 29.3938Z" fill="#A3EBA7"/>
<path d="M13.1882 20.0523C11.2418 20.0523 9.29627 20.0843 7.35171 20.0435C5.05266 19.9965 3.51562 18.6247 3.51562 16.6969C3.51562 14.7692 5.06104 13.385 7.3545 13.3672C11.3038 13.3359 15.2537 13.3359 19.2042 13.3672C21.4967 13.3859 23.0663 14.786 23.0626 16.7005C23.0589 18.6149 21.4865 20.0009 19.2033 20.0444C17.1973 20.0825 15.1923 20.0523 13.1882 20.0523Z" fill="#A3EBA7"/>
</svg>
