<svg width="42" height="42" viewBox="0 0 42 42" fill="none" xmlns="http://www.w3.org/2000/svg">
<rect x="0.5" y="0.5" width="41" height="41" rx="3.5" fill="#55CE5B"/>
<rect x="0.5" y="0.5" width="41" height="41" rx="3.5" stroke="#55CE5B"/>
<mask id="mask0_720_96" style="mask-type:alpha" maskUnits="userSpaceOnUse" x="5" y="5" width="32" height="32">
<rect x="5" y="5" width="32" height="32" fill="#D9D9D9"/>
</mask>
<g mask="url(#mask0_720_96)">
<path d="M21.0312 34.3271C20.4775 34.3271 20.0006 34.166 19.6006 33.8438C19.2006 33.5218 18.966 33.1079 18.8967 32.6021H18.0312C17.6292 32.6021 17.2787 32.4525 16.9797 32.1533C16.6807 31.8543 16.5312 31.5038 16.5312 31.1018V26.5845C14.9793 25.725 13.7787 24.5529 12.9297 23.0681C12.0807 21.5836 11.6562 20.0193 11.6562 18.375C11.6562 15.7538 12.5635 13.536 14.378 11.7218C16.1922 9.90725 18.41 9 21.0312 9C23.6525 9 25.8703 9.90725 27.6845 11.7218C29.499 13.536 30.4062 15.7538 30.4062 18.375C30.4062 20.0308 29.9818 21.598 29.1328 23.0768C28.2838 24.5558 27.0832 25.725 25.5312 26.5845V31.1018C25.5312 31.5038 25.3817 31.8543 25.0827 32.1533C24.7837 32.4525 24.4333 32.6021 24.0312 32.6021H23.1657C23.0965 33.1079 22.8619 33.5218 22.4619 33.8438C22.0619 34.166 21.585 34.3271 21.0312 34.3271ZM18.0312 31.1018H24.0312V29.6366H18.0312V31.1018ZM18.0312 28.4828H24.0312V27H18.0312V28.4828ZM21.6946 25.5V20.8155L24.8218 17.6884L23.8813 16.7483L21.0312 19.5983L18.1812 16.7483L17.2408 17.6884L20.3679 20.8155V25.5H21.6946Z" fill="white"/>
</g>
</svg>
