<svg width="63" height="56" viewBox="0 0 63 56" fill="none" xmlns="http://www.w3.org/2000/svg">
<g clip-path="url(#clip0_560_1298)">
<path d="M63.0055 42.3836V42.9019C62.9336 42.9386 62.857 42.9653 62.778 42.9815C62.0104 42.9931 61.2414 43.0061 60.4739 43.0061C52.0036 43.0061 43.5329 43.0061 35.0616 43.0061C34.5418 43.0061 34.1976 42.883 33.852 42.4401C31.9613 39.9792 29.7018 37.9106 27.1832 36.1098C26.3696 35.5147 25.592 34.8713 24.8547 34.183C23.3211 32.7847 21.6089 31.6338 19.8909 30.4873C17.6531 28.9949 15.3289 27.6284 13.2423 25.9173C10.5148 23.6808 8.66584 20.8898 8.02071 17.3534C7.67798 15.4831 7.28053 13.6244 6.88884 11.7642C6.75492 11.1287 6.55619 10.5077 6.39923 9.88235C6.34791 9.69725 6.32414 9.50554 6.32867 9.31345C6.32829 9.10662 6.3888 8.9043 6.50257 8.73197C6.61635 8.55964 6.7783 8.425 6.96804 8.34501C7.37701 8.16261 7.7183 8.31751 8.02791 8.57662C8.5636 9.02393 8.84297 9.64205 9.09929 10.2674C9.66811 11.6484 10.211 13.0395 10.7899 14.4162C11.4926 16.0795 12.1579 17.7616 12.9499 19.3785C13.958 21.4327 15.5665 22.928 17.6588 23.8661C18.7285 24.3705 19.9269 24.5307 21.0905 24.325C21.5383 24.2439 21.8623 24.0354 21.9545 23.5852C22.0065 23.3837 21.9884 23.1703 21.9033 22.9805C21.8182 22.7907 21.6711 22.6358 21.4865 22.5415C20.3949 21.8901 19.3062 21.2387 18.1989 20.6075C17.1721 20.0285 16.1497 19.4495 15.3346 18.5693C15.1973 18.4355 15.0756 18.2864 14.9717 18.1249C14.5973 17.4706 14.8666 16.9466 15.6154 16.9538C16.1187 16.958 16.6191 17.0306 17.103 17.1695C20.4684 18.164 23.6263 19.5696 26.3192 21.9046C27.3373 22.7891 28.3713 23.6417 29.0553 24.8504C30.0633 26.6295 30.6047 28.5215 30.5385 30.5814C30.5198 31.1315 30.4247 31.7395 30.6292 32.2158C30.8222 32.6587 31.332 32.9931 31.7582 33.2986C33.083 34.2496 34.3935 35.234 35.7903 36.0736C37.7704 37.2664 39.952 38.0409 42.0948 38.8877C43.0308 39.2583 43.9769 39.6115 44.8899 40.0371C46.6957 40.8781 48.6052 41.2921 50.5636 41.5324C51.3239 41.6265 52.08 41.7539 52.8403 41.8408C53.4336 41.9088 54.0312 41.9465 54.6274 41.9855C56.2287 42.0763 57.831 42.1612 59.4342 42.2403C59.9613 42.2649 60.4897 42.2403 61.0182 42.2693C61.6605 42.2852 62.3013 42.333 63.0055 42.3836Z" fill="#A3EBA7"/>
<path d="M37.424 35.6254C36.9329 35.3518 36.4779 35.1375 36.0631 34.8596C34.9687 34.1242 33.8901 33.3628 32.8087 32.6086C32.6645 32.5206 32.544 32.3985 32.4577 32.2529C32.3713 32.1073 32.3217 31.9426 32.3133 31.7733C32.2903 31.1943 32.2039 30.6153 32.2456 30.0449C32.3997 27.8938 33.016 25.9005 34.2501 24.1026C34.8261 23.2688 35.5822 22.6477 36.3339 22.0224C37.8502 20.7601 39.4515 19.6035 41.2732 18.8218C42.5951 18.2558 43.9444 17.752 45.3053 17.2699C45.8194 17.0875 46.3795 17.0325 46.9224 16.95C47.1356 16.919 47.353 16.9333 47.5604 16.992C47.9722 17.1093 48.1364 17.4263 47.9636 17.8302C47.8415 18.1157 47.6731 18.3788 47.4653 18.609C46.5898 19.5673 45.4493 20.1593 44.3318 20.7557C43.3151 21.2957 42.2726 21.785 41.3682 22.5204C41.0889 22.7476 40.8887 22.9865 40.8786 23.3556C40.8617 23.5507 40.9128 23.7456 41.0231 23.9069C41.1335 24.0683 41.2962 24.1861 41.4834 24.2401C41.8483 24.3562 42.2283 24.4167 42.611 24.4196C43.9097 24.3747 45.1739 23.9878 46.2773 23.2977C48.3711 22.0398 49.6786 20.1347 50.6132 17.9547C51.6011 15.6544 52.4738 13.3064 53.4299 10.9932C53.753 10.2714 54.114 9.56734 54.5114 8.88406C54.6142 8.72139 54.7539 8.58547 54.9189 8.48742C55.2789 8.25147 55.6605 8.14724 56.0594 8.42083C56.4583 8.69442 56.5418 9.06356 56.503 9.49349C56.4745 9.73279 56.4317 9.97014 56.3748 10.2043C55.8679 12.5551 55.3193 14.8973 54.8599 17.2569C54.3491 20.0009 53.0401 22.5308 51.0985 24.5267C49.9249 25.7441 48.5727 26.7299 47.1816 27.6825C44.6472 29.4196 42.1329 31.1856 39.7669 33.1543C38.8819 33.8716 38.0942 34.7023 37.424 35.6254Z" fill="#A3EBA7"/>
<path d="M31.5355 3.08179C32.1691 2.48972 32.7681 1.86581 33.4349 1.32442C34.4053 0.513244 35.6192 0.0542942 36.8809 0.0215854C38.2993 -0.00736635 39.5435 0.547062 40.6005 1.50681C42.0405 2.80964 42.8037 4.44397 43.0485 6.35624C43.4085 9.08494 42.5603 11.4358 40.8755 13.5305C39.9251 14.7117 38.7155 15.5571 37.3921 16.2809C36.0413 17.0134 34.6934 17.7546 33.5414 18.7954L32.4283 19.7985C32.411 19.6248 32.5636 19.4584 32.6889 19.2832C33.431 18.2728 34.3381 17.3962 35.3717 16.6906C36.3365 16.0174 37.3071 15.3487 38.2302 14.6205C40.2275 13.0441 41.4717 10.9943 41.6862 8.43208C41.8475 6.43296 41.2787 4.59307 39.8718 3.12232C38.3526 1.52998 36.6548 1.38522 34.8058 2.55197C34.0224 3.04415 33.4089 3.72742 32.8732 4.47437C32.4139 5.11421 31.9963 5.7772 31.5023 6.52416C31.2834 6.17239 31.0905 5.87998 30.9148 5.57743C30.329 4.57855 29.592 3.67748 28.7303 2.90663C27.9677 2.18997 26.9646 1.78838 25.9208 1.78185C24.9905 1.78185 24.1452 2.18428 23.4525 2.82701C22.3262 3.86636 21.6152 5.28258 21.4523 6.81078C21.1312 9.4425 21.9808 11.7181 23.7564 13.6289C24.3396 14.2557 25.0711 14.7479 25.7566 15.2734C26.8049 16.0782 27.8907 16.831 28.9247 17.6547C29.9241 18.4183 30.6913 19.4477 31.1394 20.6266C31.1783 20.7337 31.1956 20.8466 31.2316 20.987C31.1481 20.9624 31.0876 20.9639 31.0876 20.9421C30.346 19.4598 29.1493 18.4465 27.7885 17.5953C26.6077 16.8556 25.4081 16.1477 24.2417 15.3877C22.0053 13.9286 20.5365 11.9135 20.0656 9.24563C19.5443 6.28675 20.1491 3.64201 22.4042 1.52273C23.4813 0.509422 24.75 -0.0855342 26.2433 0.0100067C27.5017 0.0801436 28.7023 0.563814 29.6605 1.38666C30.2985 1.92951 30.9047 2.50854 31.5355 3.08179Z" fill="#A3EBA7"/>
<path d="M17.7056 52.5519C18.1751 52.5519 18.5308 52.5635 18.8865 52.5519C19.3617 52.5331 19.4279 52.4737 19.5503 51.9729C19.654 51.5516 19.7073 51.1159 19.8383 50.7062C20.1148 49.8492 20.6289 49.2065 21.5865 49.1139C22.2691 49.0458 22.8523 49.3368 23.3549 49.7783C23.877 50.2432 24.2541 50.85 24.4407 51.5255C24.7172 52.4708 24.6005 52.5823 25.9023 52.5475C26.0309 52.5366 26.1587 52.5188 26.2854 52.494C26.3574 51.65 26.3055 50.7887 26.3242 49.9317C26.343 49.0748 26.3242 48.2554 26.3242 47.3594H27.7067V53.7693C27.5509 53.8123 27.3912 53.839 27.23 53.8489C26.2551 53.8113 25.2629 54.0009 24.3139 53.5855C24.1195 53.5015 23.8344 53.558 23.6112 53.6231C22.6678 53.9244 21.6553 53.9284 20.7095 53.6347C20.5238 53.5753 20.2948 53.6347 20.0889 53.6607C19.7145 53.7157 19.343 53.8417 18.97 53.846C16.905 53.8634 14.8414 53.846 12.7778 53.8591C12.2134 53.8591 11.6762 53.8127 11.2169 53.4972C9.88482 53.9922 8.59887 54.108 7.37052 53.3524C6.81899 53.4204 6.27753 53.5464 5.73608 53.5449C5.14248 53.5393 4.57394 53.3036 4.14899 52.8869C3.72403 52.4703 3.47545 51.9048 3.45507 51.3084C3.40467 50.2488 4.34069 49.2051 5.48552 49.04C6.07449 48.9546 6.66059 48.8432 7.25244 48.7766C7.61414 48.7581 7.97653 48.7581 8.33822 48.7766C8.33822 49.2253 8.33822 49.6031 8.33822 49.9824C8.33822 50.5846 8.32526 51.1883 8.33822 51.7919C8.3555 52.3709 8.51535 52.5157 9.06688 52.5519C10.2463 52.6243 10.3341 52.5403 10.3355 51.3417V49.4265H11.6244C11.898 49.9158 11.741 50.4312 11.7684 50.9233C11.7957 51.4155 11.7684 51.8802 11.7684 52.3811C12.173 52.591 14.9537 52.6706 16.3074 52.4867C16.4514 51.8657 16.4355 51.2592 15.969 50.7496C15.5024 50.2401 15.0545 50.269 13.5684 50.7496L13.0385 49.703C14.0307 49.0632 15.0473 48.9155 16.0827 49.3093C17.4954 49.8449 17.8352 51.0377 17.7056 52.5519ZM7.00331 50.2951C6.76139 50.2705 6.62171 50.2473 6.48202 50.243C6.29004 50.2327 6.09759 50.2356 5.90601 50.2517C5.27815 50.3183 4.86054 50.7627 4.87494 51.3316C4.88934 51.8657 5.30695 52.2696 5.91177 52.3333C6.57994 52.4042 6.99179 52.0438 7.00043 51.3634C7.00763 51.0189 7.00331 50.6917 7.00331 50.2951ZM23.0798 52.4448C23.1475 51.6385 22.7544 50.8365 22.164 50.4934C21.791 50.2777 21.3936 50.3863 21.238 50.8235C21.0947 51.2992 20.9774 51.7824 20.8867 52.2711C21.6715 52.646 22.3742 52.5997 23.0798 52.439V52.4448Z" fill="#A3EBA7"/>
<path d="M26.8163 37.3281C29.1319 38.8669 30.9794 40.8023 32.827 42.9911H31.9299C26.1251 42.9911 20.3203 42.9911 14.5155 43.0085C12.5989 43.0085 10.6822 43.1084 8.76548 43.1026C6.0107 43.0939 3.25448 43.0316 0.498255 42.9896C0.354251 42.9896 0.218885 42.9621 0.0360008 42.9419L0 42.5192C0.0806419 42.4714 0.144007 42.4092 0.201608 42.4048C0.964826 42.3513 1.72948 42.2847 2.4927 42.2601C5.0574 42.192 7.62066 42.1471 10.1839 42.0835C11.4799 42.0502 12.776 42.0212 14.0605 41.9387C14.7516 41.8814 15.4394 41.7887 16.1212 41.6608C17.8694 41.3799 19.6233 41.1237 21.36 40.7922C23.2162 40.4303 24.8435 39.5922 26.1323 38.1663C26.3569 37.9231 26.5556 37.6524 26.8163 37.3281Z" fill="#A3EBA7"/>
<path d="M31.0969 18.0552C30.2329 16.8696 28.9124 16.3514 27.7056 15.6739C26.1216 14.7836 25.1568 13.4576 24.7982 11.6728C24.4396 9.88788 25.462 7.73242 27.0907 6.92322C28.2528 6.34418 29.8095 6.58303 30.8506 7.50225C31.0623 7.69044 31.2654 7.89021 31.4929 8.103C31.8644 7.80335 32.1812 7.51239 32.5312 7.27209C34.3168 6.05322 36.5258 6.58158 37.5972 8.46345C39.0372 10.9852 38.0724 13.7168 36.114 15.1354C35.7655 15.3873 35.3867 15.5972 35.0152 15.8158C34.0562 16.3803 33.0942 16.9362 32.1236 17.5022C32.5139 16.7147 33.2325 16.2428 33.8963 15.7115C34.589 15.1586 35.3363 14.6505 35.9196 13.9903C37.1796 12.5529 37.3596 10.713 36.2738 9.13658C35.5768 8.12327 34.2822 7.96259 33.4398 8.62558C32.8177 9.11487 32.403 9.75181 31.9681 10.3844C31.8356 10.574 31.719 10.7738 31.5361 11.0532C31.1588 10.5031 30.865 10.0124 30.5065 9.57375C30.2084 9.19993 29.8632 8.8666 29.4797 8.58215C28.7424 8.05523 27.9288 8.12327 27.229 8.69507C26.6783 9.13748 26.3125 9.77118 26.2037 10.4713C25.9301 12.1316 26.4744 13.5112 27.7459 14.5911C28.3133 15.0717 28.9685 15.4481 29.5157 15.9475C30.0917 16.4759 30.6001 17.0925 31.1286 17.6774C31.1833 17.7382 31.1833 17.8496 31.2092 17.9365L31.0969 18.0552Z" fill="#A3EBA7"/>
<path d="M51.2385 49.4022H52.5806C52.7506 50.4155 52.657 51.4158 52.5806 52.4335C53.1379 52.6274 53.6765 52.558 54.2799 52.4841C54.3634 52.2192 54.4584 51.9529 54.5305 51.6807C54.6341 51.2855 54.6745 50.8701 54.8185 50.4923C55.3513 49.104 56.5998 48.7059 57.8425 49.4601C58.219 49.7135 58.5472 50.0327 58.8117 50.4025C59.3877 51.1422 59.6411 52.2366 59.523 53.2629C58.3912 53.7638 57.206 54.0504 55.9446 53.6972C55.5834 53.5995 55.2023 53.6055 54.8444 53.7146C53.9098 53.9563 52.9493 53.994 52.0666 53.4888C51.1752 53.8753 49.3953 53.9998 47.8905 53.7783C47.7335 53.2601 47.7047 48.1616 47.8645 47.3438H49.1793V52.4103C49.7423 52.6275 50.2464 52.529 50.7388 52.5189C51.1075 52.5116 51.204 52.2207 51.2112 51.9109C51.2256 51.3565 51.2198 50.802 51.2212 50.2476C51.2385 50.0015 51.2385 49.7381 51.2385 49.4022ZM58.1377 52.4175C58.0793 51.8715 57.8725 51.3522 57.5401 50.9164C57.3789 50.7136 57.1748 50.5494 56.9425 50.4358C56.8786 50.4002 56.8078 50.3789 56.7349 50.3735C56.662 50.3681 56.5889 50.3786 56.5204 50.4043C56.452 50.43 56.3899 50.4704 56.3385 50.5225C56.287 50.5747 56.2475 50.6375 56.2225 50.7065C56.0108 51.2074 55.7732 51.7198 55.9086 52.3075C56.6387 52.6477 57.3515 52.5884 58.1377 52.4175Z" fill="#A3EBA7"/>
<path d="M50.6904 15.5378C50.2253 14.9457 50.1418 14.3406 50.0971 13.7645C50.0006 12.5225 49.9531 11.2732 49.9531 10.0268C49.9531 9.28421 50.0611 8.54015 50.4643 7.88004C50.6688 7.54565 50.8963 7.24455 51.3399 7.15625C51.7532 7.36326 51.9159 7.77871 52.0397 8.18259C52.4444 9.49555 52.5538 10.8056 51.9994 12.1244C51.6092 13.0537 51.2981 14.0149 50.9482 14.9602C50.8906 15.1194 50.8128 15.2642 50.6904 15.5378Z" fill="#A3EBA7"/>
<path d="M11.738 15.6163C11.5623 15.2674 11.45 15.0908 11.3809 14.8997C10.9935 13.8632 10.5672 12.8369 10.2476 11.7801C9.80766 10.4121 9.92254 8.92485 10.5672 7.64148C10.6594 7.4808 10.7628 7.32696 10.8769 7.18115C11.2973 7.15944 11.5306 7.38237 11.7409 7.65741C12.0997 8.11747 12.3067 8.67874 12.3327 9.26278C12.399 11.0404 12.5127 12.8282 12.0764 14.5827C12.0073 14.8751 11.8921 15.1574 11.738 15.6163Z" fill="#A3EBA7"/>
<path d="M36.0419 49.1914C37.2357 49.1827 38.395 50.3828 38.4065 51.6422C38.4194 52.8263 37.374 53.8309 36.1125 53.8483C34.792 53.8671 33.8488 52.9638 33.7912 51.7131C33.7307 50.4001 34.9835 49.1074 36.0419 49.1914ZM36.2925 52.5411C36.3803 52.4875 36.677 52.3964 36.8282 52.1937C37.0946 51.839 37.0312 51.4163 36.8066 51.0443C36.6324 50.7548 36.4163 50.4378 36.0477 50.4653C35.6157 50.4913 35.4314 50.8706 35.2629 51.2224C35.2423 51.2654 35.2249 51.3099 35.211 51.3555C34.9936 52.0156 35.3968 52.5585 36.2925 52.5411Z" fill="#A3EBA7"/>
<path d="M41.7969 53.5846V52.4497C42.9489 52.5235 44.0548 52.6915 45.1464 52.3643C44.8728 51.0615 44.3947 50.5432 42.7977 49.7586C42.6393 49.375 42.8366 49.0349 42.9417 48.6889C44.8137 48.6266 46.5144 50.6837 46.6858 53.1619C45.5467 53.8713 43.175 54.0826 41.7969 53.5846Z" fill="#A3EBA7"/>
<path d="M39.6062 49.4062H40.9022C40.9502 49.5963 40.9829 49.79 41.0002 49.9853C41.0002 51.2128 41.0203 52.4389 41.0002 53.6651C40.9786 54.9505 40.1592 55.8495 39.0014 55.8364C38.7047 55.3182 38.7047 55.3182 38.7681 54.6624C39.5155 54.5843 39.6033 54.066 39.5846 53.4204C39.5515 52.3391 39.5731 51.2563 39.5846 50.1735C39.5702 49.9332 39.5918 49.6987 39.6062 49.4062Z" fill="#A3EBA7"/>
<path d="M29.1426 47.3438H30.3493V53.7783H29.1814C29.0288 53.2745 28.9928 48.247 29.1426 47.3438Z" fill="#A3EBA7"/>
<path d="M49.5023 16.0002C49.3511 15.8256 49.2107 15.6419 49.0818 15.4501C48.3733 14.2573 47.865 12.9892 47.7109 11.6009C47.6806 11.1224 47.7387 10.6424 47.8823 10.1852C47.922 10.0011 48.0274 9.83794 48.1787 9.7267C48.3299 9.61546 48.5165 9.56382 48.7031 9.58154C48.7668 9.70729 48.8202 9.83799 48.8629 9.97239C49.2028 11.4981 49.5388 13.0249 49.871 14.5526C49.979 15.0462 49.8047 15.4892 49.6866 15.9423L49.5023 16.0002Z" fill="#A3EBA7"/>
<path d="M13.6833 9.54688C14.4177 9.70611 14.5991 10.2157 14.6423 10.7498C14.6772 11.2519 14.6476 11.7564 14.5545 12.251C14.3412 13.3406 13.9386 14.3838 13.365 15.3329C13.2383 15.5529 13.077 15.7498 12.92 15.964C12.7769 15.9006 12.6588 15.791 12.5845 15.6526C12.5102 15.5142 12.4838 15.3548 12.5096 15.1997C12.5319 14.6495 12.5921 14.1015 12.6896 13.5596C12.9344 12.3842 13.2253 11.2174 13.5018 10.0477C13.5539 9.87784 13.6145 9.71067 13.6833 9.54688Z" fill="#A3EBA7"/>
<path d="M52.5504 55.2766C52.5541 55.3726 52.5379 55.4684 52.503 55.5578C52.4681 55.6473 52.4152 55.7286 52.3476 55.7965C52.28 55.8645 52.1992 55.9177 52.1102 55.9528C52.0212 55.9878 51.9259 56.0041 51.8304 56.0004C51.6514 55.982 51.4845 55.9011 51.3587 55.7717C51.233 55.6424 51.1563 55.4728 51.1421 55.2925C51.1359 55.1961 51.1496 55.0994 51.1824 55.0085C51.2152 54.9177 51.2664 54.8346 51.3327 54.7646C51.3989 54.6946 51.4789 54.6391 51.5675 54.6017C51.6562 54.5642 51.7515 54.5456 51.8477 54.547C52.2782 54.5398 52.5533 54.825 52.5504 55.2766Z" fill="#A3EBA7"/>
<path d="M11.6637 55.2405C11.6718 55.3359 11.6603 55.4319 11.63 55.5226C11.5997 55.6133 11.5512 55.6968 11.4875 55.7679C11.4237 55.839 11.3462 55.8962 11.2596 55.936C11.173 55.9758 11.0792 55.9972 10.984 55.999C10.6096 56.0164 10.2841 55.6719 10.2813 55.255C10.2809 55.0752 10.3488 54.9019 10.4711 54.7707C10.5933 54.6394 10.7608 54.56 10.9393 54.5486C11.3598 54.5225 11.6507 54.8004 11.6637 55.2405Z" fill="#A3EBA7"/>
<path d="M6.63072 48.3461C6.54969 48.3472 6.46931 48.3315 6.39455 48.3C6.3198 48.2686 6.25227 48.222 6.19615 48.1632C6.14003 48.1045 6.09651 48.0347 6.06829 47.9584C6.04007 47.882 6.02775 47.8006 6.0321 47.7193C6.03645 47.6379 6.05737 47.5584 6.09357 47.4855C6.12976 47.4126 6.18046 47.348 6.24252 47.2956C6.30458 47.2432 6.37669 47.2042 6.45436 47.1809C6.53204 47.1577 6.61363 47.1508 6.69408 47.1605C6.85085 47.168 6.99824 47.2378 7.10383 47.3546C7.20942 47.4713 7.26457 47.6254 7.25713 47.783C7.24675 47.9406 7.17534 48.0878 7.05824 48.1931C6.94114 48.2983 6.78765 48.3533 6.63072 48.3461Z" fill="#A3EBA7"/>
<path d="M5.79617 47.7029C5.80471 47.7811 5.79732 47.8602 5.77447 47.9353C5.75162 48.0105 5.71377 48.0802 5.66325 48.1402C5.61272 48.2002 5.55057 48.2493 5.48058 48.2843C5.4106 48.3194 5.33424 48.3398 5.25616 48.3442C5.17271 48.3525 5.08847 48.3431 5.0088 48.3168C4.92914 48.2905 4.8558 48.2478 4.79347 48.1914C4.73114 48.135 4.68119 48.0662 4.6468 47.9893C4.61241 47.9125 4.59435 47.8292 4.59375 47.7449C4.60171 47.5876 4.66576 47.4384 4.77417 47.3246C4.88259 47.2108 5.02812 47.1401 5.18416 47.1254C5.26213 47.1227 5.33986 47.1355 5.41289 47.1631C5.48591 47.1907 5.55278 47.2325 5.60966 47.2862C5.66654 47.3399 5.7123 47.4043 5.74431 47.4759C5.77632 47.5474 5.79394 47.6245 5.79617 47.7029Z" fill="#A3EBA7"/>
<path d="M37.4233 47.9644C37.4144 48.0802 37.3717 48.1908 37.3006 48.2823C37.2294 48.3738 37.133 48.4423 37.0234 48.479C36.9138 48.5158 36.7959 48.5192 36.6843 48.4889C36.5728 48.4586 36.4726 48.396 36.3963 48.3087C36.32 48.2215 36.271 48.1136 36.2554 47.9985C36.2398 47.8834 36.2583 47.7663 36.3086 47.6617C36.3588 47.5571 36.4387 47.4698 36.5381 47.4106C36.6375 47.3514 36.7521 47.323 36.8675 47.3289C37.0245 47.3404 37.1707 47.4135 37.2747 47.5323C37.3787 47.6512 37.432 47.8063 37.4233 47.9644Z" fill="#A3EBA7"/>
<path d="M35.3739 48.5769C35.0254 48.5769 34.7792 48.2744 34.7979 47.8879C34.7985 47.8097 34.8153 47.7326 34.8472 47.6613C34.879 47.5901 34.9252 47.5262 34.9829 47.4738C35.0406 47.4214 35.1084 47.3817 35.1822 47.357C35.2559 47.3323 35.3339 47.3233 35.4113 47.3305C35.568 47.3428 35.7136 47.4161 35.8172 47.5348C35.9208 47.6536 35.9741 47.8083 35.9657 47.966C35.9566 48.1224 35.8918 48.2702 35.7831 48.3823C35.6744 48.4945 35.5291 48.5636 35.3739 48.5769Z" fill="#A3EBA7"/>
</g>
<defs>
<clipPath id="clip0_560_1298">
<rect width="63" height="56" fill="white"/>
</clipPath>
</defs>
</svg>
