<svg width="146" height="37" viewBox="0 0 146 37" fill="none" xmlns="http://www.w3.org/2000/svg">
<g clip-path="url(#clip0_657_3707)">
<path d="M119.107 19.0424C120.42 19.4628 121.839 19.4384 123.137 18.973C124.81 18.3749 126.44 17.6545 128.105 17.0273C128.924 16.7178 129.777 16.4575 130.679 16.5708C131.428 16.6621 131.761 17.1807 131.54 17.8709C131.29 18.6507 131.425 18.994 132.136 19.4167C132.711 19.7591 133.319 19.9152 133.994 19.8011C134.481 19.7152 134.971 19.6543 135.464 19.6185C135.752 19.5993 135.869 19.4605 136.022 19.2414C136.691 18.301 137.341 17.3377 138.11 16.4785C138.928 15.5655 140.279 15.4605 141.309 16.1526C141.857 16.5097 142.364 16.9249 142.82 17.3907C143.674 18.2928 144.643 18.9629 145.992 19.1958C145.927 19.4099 145.846 19.6193 145.75 19.8221C145.633 20.001 145.504 20.1715 145.362 20.3325C144.829 21.0264 144.678 21.0766 143.821 20.8474C142.209 20.4165 140.631 20.5425 139.041 21.0301C138.059 21.3295 137.026 21.4628 136.024 21.6993C135.929 21.7253 135.84 21.7699 135.763 21.8305C135.686 21.8911 135.622 21.9663 135.576 22.0517C135.144 23.036 134.75 24.0358 134.333 25.0273C134.265 25.1803 134.143 25.3043 133.989 25.377C133.989 24.159 134.503 23.0789 134.839 21.9467H133.385C131.975 21.9467 131.263 21.4784 130.72 20.2065C130.527 19.75 130.378 19.2076 129.723 19.2642C129.247 19.3045 128.777 19.402 128.325 19.5546C127.28 19.9125 126.255 20.3243 125.218 20.7032C124.933 20.8073 124.633 20.8739 124.248 20.9844C124.392 21.1378 124.527 21.3569 124.593 21.3377C124.762 21.2894 124.9 21.136 125.08 21.0027L125.386 21.2245L125.664 20.9095C125.969 21.4208 125.774 21.8892 125.222 21.9385C124.85 21.9714 124.801 22.1211 124.85 22.4425C124.907 22.8169 124.923 23.196 124.9 23.5738C124.89 23.7272 124.731 23.8714 124.577 24.1216C124.484 23.592 124.42 23.1812 124.324 22.7794C124.258 22.5055 124.125 22.2453 124.045 21.9723C123.965 21.6993 123.923 21.4345 123.853 21.1141C123.342 21.2054 122.73 21.3651 122.11 21.4007C121.174 21.4665 120.234 21.4683 119.297 21.4062C118.482 21.3405 117.846 20.8365 117.312 20.2485C117.101 20.0166 116.972 19.9746 116.668 20.1426C114.796 21.1606 112.905 22.143 111.021 23.1383C110.641 23.3391 110.267 23.5519 109.886 23.7518C109.58 23.9125 109.712 24.1107 109.805 24.328C110.277 25.4291 110.76 26.5266 111.199 27.6386C111.819 29.1999 112.357 30.7813 112.061 32.5188C112.81 32.685 113.467 32.5061 114.114 32.2394C114.282 32.1628 114.455 32.0987 114.632 32.0477C115.468 31.845 115.875 32.0176 116.026 32.832C116.132 33.4045 116.534 33.5752 116.931 33.7505C117.715 34.0984 118.543 34.1267 119.377 33.8875C119.598 33.8245 119.831 33.8026 120.146 33.745C119.854 33.452 119.637 33.1224 119.329 32.9452C118.276 32.3417 118.288 31.3739 118.337 30.3805C118.346 30.153 118.38 29.9271 118.438 29.7067C118.548 29.3058 118.693 29.283 119.002 29.577C119.718 30.2591 120.55 30.711 121.574 30.533C122.126 30.4362 122.726 30.2901 123.172 29.9852C124.346 29.1735 125.223 29.6702 126.06 30.4727C126.456 30.8516 126.796 31.2862 127.219 31.7601V29.7815L127.334 29.7249C127.4 29.7888 127.503 29.8409 127.529 29.9185C127.91 31.0771 128.562 32.0523 129.592 32.738C130.043 33.0374 130.539 33.3196 131.203 33.1945C131.145 32.9662 131.093 32.7544 131.038 32.5435C130.826 31.7272 130.547 30.921 130.42 30.092C130.286 29.2127 130.435 28.3572 131.406 27.8888C132.169 27.5181 133.348 27.5674 133.831 28.5928C134.29 29.5828 134.587 30.6384 134.71 31.7199C134.759 32.1317 134.895 32.2878 135.329 32.3143C136.007 32.3698 136.68 32.4612 137.348 32.5882C137.827 32.6677 138.213 33.1434 138.227 33.6254C138.255 34.544 138.041 35.3967 137.501 36.16C137.354 36.3673 137.208 36.4696 137.061 36.1902C136.656 35.4177 135.917 35.4068 135.216 35.4734C134.317 35.5584 133.424 35.74 132.538 35.9227C131.133 36.2121 129.843 36.0021 128.665 35.1265C128.626 35.2201 128.593 35.3162 128.567 35.4141C128.407 36.265 128.367 36.2751 127.471 36.2075C126.491 36.1345 125.503 36.0249 124.526 36.0797C123.58 36.1317 122.64 36.3436 121.706 36.5289C120.299 36.8083 118.907 37.1735 117.449 36.8941C116.992 36.8155 116.559 36.6377 116.18 36.3736C115.802 36.1095 115.489 35.7658 115.263 35.3675C114.898 34.7594 114.74 34.7348 114.081 35.0215C113.454 35.2954 112.787 35.614 112.093 35.2397C111.816 35.0893 111.585 34.8686 111.425 34.6006C110.943 33.7514 110.881 32.7946 110.932 31.8615C110.97 31.1612 110.799 30.5348 110.536 29.9222C109.768 28.1372 108.97 26.3613 108.191 24.5836C108.08 24.3289 107.96 24.2969 107.663 24.3435C105.597 24.6676 103.553 24.7653 101.769 23.393C100.76 22.6169 100.088 21.5824 99.5392 20.4713C99.2316 19.8458 98.9101 19.2104 98.728 18.5438C98.3693 17.2355 98.1649 15.8869 98.6667 14.573C99.0913 13.4591 99.9555 12.6675 100.937 12.0019C100.989 11.9718 101.047 11.9523 101.107 11.9444C101.133 11.9398 101.163 11.9599 101.248 11.9873C97.835 15.035 98.3674 18.2453 101.112 21.251C102.664 22.9474 104.903 22.8077 107.093 22.3467C106.357 20.947 105.646 19.5911 104.932 18.238C104.161 16.7771 103.274 15.3601 102.642 13.8417C101.778 11.7618 101.353 9.5641 101.483 7.29337C101.597 5.30842 102.48 3.64942 103.813 2.21412C104.463 1.51382 105.216 0.902996 105.929 0.257477C106.053 0.161247 106.185 0.0751369 106.324 0L106.425 0.113216C106.306 0.226433 106.192 0.346042 106.069 0.453781C104.872 1.49556 103.85 2.66242 103.185 4.12146C102.634 5.33033 102.585 6.59306 102.668 7.86493C102.873 11.0524 104.257 13.838 105.79 16.5735C106.653 18.112 107.471 19.6778 108.29 21.2355C108.643 21.9075 108.673 21.9513 109.346 21.5834C110.355 21.0355 111.341 20.4448 112.345 19.8869C113.939 19.0013 115.566 18.1522 117.353 17.7367C118.642 17.4526 119.981 17.4613 121.267 17.7623C121.42 17.7897 121.56 17.8628 121.669 17.9714C121.77 18.0944 121.819 18.251 121.806 18.4087C121.793 18.4927 121.594 18.5913 121.467 18.605C120.889 18.689 120.306 18.7356 119.73 18.8232C119.516 18.8579 119.314 18.9675 119.107 19.0424ZM136.808 19.4468L136.869 19.5902L141.029 18.8442C140.193 18.3311 139.615 17.5103 138.636 17.7385C137.741 17.9467 137.177 18.6351 136.808 19.4468ZM121.654 33.1424L121.74 33.2995L126.045 32.7663L126.138 32.675C126.011 32.5919 125.886 32.5061 125.756 32.4275C125.282 32.139 124.865 31.7501 124.204 32.0368C123.452 32.3636 122.656 32.5846 121.881 32.874C121.784 32.9105 121.729 33.0493 121.654 33.1397V33.1424ZM134.143 32.1418L134.247 32.024C134.01 31.6788 133.794 31.3182 133.533 30.9922C133.069 30.4106 132.213 30.48 131.743 31.1557C132.454 31.7026 133.266 31.9966 134.143 32.1418Z" fill="#55CE5B"/>
<path d="M94.0041 8.20575C92.7841 8.99462 92.0528 9.97979 91.7006 11.2115C91.156 13.1243 90.8763 15.0745 91.0185 17.0695C91.1546 18.8888 91.6213 20.6693 92.3966 22.3268C93.4596 24.6414 95.0058 26.608 96.8736 28.3364C98.2405 29.6019 99.8471 30.5414 101.466 31.4636C103.221 32.4679 105.098 33.1911 107.023 33.8101C107.766 34.0502 108.494 34.3579 109.226 34.6318C109.33 34.6803 109.429 34.7371 109.523 34.8017C109.518 34.8464 109.512 34.893 109.507 34.935C109.347 34.945 109.175 34.9961 109.028 34.9569C105.226 33.9379 101.587 32.5501 98.3148 30.3396C95.043 28.1292 92.5294 25.2951 91.2025 21.5745C90.7509 20.3081 90.4935 18.9705 90.2129 17.6484C89.8932 16.1474 89.9852 14.6208 90.1534 13.1115C90.2761 12.0159 90.4247 10.9029 90.763 9.86018C91.3326 8.10714 92.128 6.44268 93.6547 5.25025C95.227 4.0213 97.4005 4.0633 99.0201 5.12333C99.2661 5.28501 99.4696 5.50172 99.6139 5.75567C99.7581 6.00962 99.839 6.29357 99.8499 6.5842C99.9038 7.37671 99.8639 8.15736 99.5042 8.90057C99.2413 9.4484 99.1772 9.50592 98.6586 9.20096C97.472 8.5034 94.9417 9.03479 94.4018 10.156C94.3244 10.3351 94.2343 10.5087 94.1324 10.6755C94.0748 10.7623 93.9614 10.8116 93.8722 10.8782C93.8229 10.7778 93.7235 10.6737 93.7319 10.5787C93.7811 10.0209 93.8564 9.46392 93.9224 8.90605L94.0041 8.20575Z" fill="#55CE5B"/>
<path d="M109.836 12.1813C109.52 12.9172 109.225 13.6541 108.876 14.3644C108.827 14.4621 108.473 14.5169 108.33 14.4493C107.831 14.2144 107.354 13.938 106.903 13.623C106.768 13.5271 106.674 13.2194 106.725 13.0569C106.939 12.3511 107.2 11.6572 107.482 10.9734C107.527 10.8638 107.794 10.7342 107.896 10.7725C108.428 10.9642 108.941 11.2 109.431 11.4774C109.613 11.5869 109.674 11.8846 109.836 12.1813Z" fill="#55CE5B"/>
</g>
<path d="M5.292 25V21.148H2.232V25H1.08V16.6H2.232V20.14H5.292V16.6H6.444V25H5.292ZM11.4594 16.54L13.7874 25H12.5754L12.0114 22.78H9.34744L8.75944 25H7.64344L9.98344 16.684L11.4594 16.54ZM10.6674 17.62L9.62344 21.796H11.7714L10.7514 17.62H10.6674ZM14.3776 18.712C14.3776 18.072 14.6176 17.536 15.0976 17.104C15.5776 16.672 16.1896 16.456 16.9336 16.456C17.6776 16.456 18.2416 16.64 18.6256 17.008C19.0096 17.376 19.2296 17.88 19.2856 18.52L18.0616 18.64C18.0376 18.272 17.9136 17.988 17.6896 17.788C17.4736 17.588 17.1736 17.488 16.7896 17.488C16.4136 17.488 16.1176 17.58 15.9016 17.764C15.6856 17.948 15.5776 18.184 15.5776 18.472C15.5776 18.856 15.7016 19.168 15.9496 19.408C16.1976 19.648 16.6216 19.92 17.2216 20.224C17.7496 20.496 18.1096 20.696 18.3016 20.824C18.5016 20.944 18.7016 21.096 18.9016 21.28C19.2856 21.624 19.4776 22.124 19.4776 22.78C19.4776 23.436 19.2296 23.996 18.7336 24.46C18.2376 24.916 17.5696 25.144 16.7296 25.144C15.8896 25.144 15.0936 24.884 14.3416 24.364L14.8336 23.476C15.5776 23.9 16.2776 24.112 16.9336 24.112C17.3256 24.112 17.6456 24.016 17.8936 23.824C18.1416 23.624 18.2656 23.34 18.2656 22.972C18.2656 22.596 18.1376 22.3 17.8816 22.084C17.6336 21.868 17.3176 21.672 16.9336 21.496C16.5576 21.32 16.3256 21.212 16.2376 21.172C16.1496 21.124 16.0016 21.044 15.7936 20.932C15.5856 20.812 15.4336 20.712 15.3376 20.632C15.2416 20.552 15.1176 20.44 14.9656 20.296C14.8216 20.144 14.7176 20 14.6536 19.864C14.4696 19.488 14.3776 19.104 14.3776 18.712ZM20.2135 18.712C20.2135 18.072 20.4535 17.536 20.9335 17.104C21.4135 16.672 22.0255 16.456 22.7695 16.456C23.5135 16.456 24.0775 16.64 24.4615 17.008C24.8455 17.376 25.0655 17.88 25.1215 18.52L23.8975 18.64C23.8735 18.272 23.7495 17.988 23.5255 17.788C23.3095 17.588 23.0095 17.488 22.6255 17.488C22.2495 17.488 21.9535 17.58 21.7375 17.764C21.5215 17.948 21.4135 18.184 21.4135 18.472C21.4135 18.856 21.5375 19.168 21.7855 19.408C22.0335 19.648 22.4575 19.92 23.0575 20.224C23.5855 20.496 23.9455 20.696 24.1375 20.824C24.3375 20.944 24.5375 21.096 24.7375 21.28C25.1215 21.624 25.3135 22.124 25.3135 22.78C25.3135 23.436 25.0655 23.996 24.5695 24.46C24.0735 24.916 23.4055 25.144 22.5655 25.144C21.7255 25.144 20.9295 24.884 20.1775 24.364L20.6695 23.476C21.4135 23.9 22.1135 24.112 22.7695 24.112C23.1615 24.112 23.4815 24.016 23.7295 23.824C23.9775 23.624 24.1015 23.34 24.1015 22.972C24.1015 22.596 23.9735 22.3 23.7175 22.084C23.4695 21.868 23.1535 21.672 22.7695 21.496C22.3935 21.32 22.1615 21.212 22.0735 21.172C21.9855 21.124 21.8375 21.044 21.6295 20.932C21.4215 20.812 21.2695 20.712 21.1735 20.632C21.0775 20.552 20.9535 20.44 20.8015 20.296C20.6575 20.144 20.5535 20 20.4895 19.864C20.3055 19.488 20.2135 19.104 20.2135 18.712ZM29.5415 16.54L31.8695 25H30.6575L30.0935 22.78H27.4295L26.8415 25H25.7255L28.0655 16.684L29.5415 16.54ZM28.7495 17.62L27.7055 21.796H29.8535L28.8335 17.62H28.7495ZM38.4956 16.6V25H37.2836L34.4996 19.312L34.1036 18.208L34.0436 18.244L34.2476 19.48V25H33.0956V16.6H34.3196L37.0916 22.432L37.4996 23.572L37.5596 23.536L37.3436 22.12V16.6H38.4956ZM44.2672 16.6V25H43.1152V16.6H44.2672ZM45.7956 18.712C45.7956 18.072 46.0356 17.536 46.5156 17.104C46.9956 16.672 47.6076 16.456 48.3516 16.456C49.0956 16.456 49.6596 16.64 50.0436 17.008C50.4276 17.376 50.6476 17.88 50.7036 18.52L49.4796 18.64C49.4556 18.272 49.3316 17.988 49.1076 17.788C48.8916 17.588 48.5916 17.488 48.2076 17.488C47.8316 17.488 47.5356 17.58 47.3196 17.764C47.1036 17.948 46.9956 18.184 46.9956 18.472C46.9956 18.856 47.1196 19.168 47.3676 19.408C47.6156 19.648 48.0396 19.92 48.6396 20.224C49.1676 20.496 49.5276 20.696 49.7196 20.824C49.9196 20.944 50.1196 21.096 50.3196 21.28C50.7036 21.624 50.8956 22.124 50.8956 22.78C50.8956 23.436 50.6476 23.996 50.1516 24.46C49.6556 24.916 48.9876 25.144 48.1476 25.144C47.3076 25.144 46.5116 24.884 45.7596 24.364L46.2516 23.476C46.9956 23.9 47.6956 24.112 48.3516 24.112C48.7436 24.112 49.0636 24.016 49.3116 23.824C49.5596 23.624 49.6836 23.34 49.6836 22.972C49.6836 22.596 49.5556 22.3 49.2996 22.084C49.0516 21.868 48.7356 21.672 48.3516 21.496C47.9756 21.32 47.7436 21.212 47.6556 21.172C47.5676 21.124 47.4196 21.044 47.2116 20.932C47.0036 20.812 46.8516 20.712 46.7556 20.632C46.6596 20.552 46.5356 20.44 46.3836 20.296C46.2396 20.144 46.1356 20 46.0716 19.864C45.8876 19.488 45.7956 19.104 45.7956 18.712ZM51.6315 18.712C51.6315 18.072 51.8715 17.536 52.3515 17.104C52.8315 16.672 53.4435 16.456 54.1875 16.456C54.9315 16.456 55.4955 16.64 55.8795 17.008C56.2635 17.376 56.4835 17.88 56.5395 18.52L55.3155 18.64C55.2915 18.272 55.1675 17.988 54.9435 17.788C54.7275 17.588 54.4275 17.488 54.0435 17.488C53.6675 17.488 53.3715 17.58 53.1555 17.764C52.9395 17.948 52.8315 18.184 52.8315 18.472C52.8315 18.856 52.9555 19.168 53.2035 19.408C53.4515 19.648 53.8755 19.92 54.4755 20.224C55.0035 20.496 55.3635 20.696 55.5555 20.824C55.7555 20.944 55.9555 21.096 56.1555 21.28C56.5395 21.624 56.7315 22.124 56.7315 22.78C56.7315 23.436 56.4835 23.996 55.9875 24.46C55.4915 24.916 54.8235 25.144 53.9835 25.144C53.1435 25.144 52.3475 24.884 51.5955 24.364L52.0875 23.476C52.8315 23.9 53.5315 24.112 54.1875 24.112C54.5795 24.112 54.8995 24.016 55.1475 23.824C55.3955 23.624 55.5195 23.34 55.5195 22.972C55.5195 22.596 55.3915 22.3 55.1355 22.084C54.8875 21.868 54.5715 21.672 54.1875 21.496C53.8115 21.32 53.5795 21.212 53.4915 21.172C53.4035 21.124 53.2555 21.044 53.0475 20.932C52.8395 20.812 52.6875 20.712 52.5915 20.632C52.4955 20.552 52.3715 20.44 52.2195 20.296C52.0755 20.144 51.9715 20 51.9075 19.864C51.7235 19.488 51.6315 19.104 51.6315 18.712ZM60.9594 16.54L63.2874 25H62.0754L61.5114 22.78H58.8474L58.2594 25H57.1434L59.4834 16.684L60.9594 16.54ZM60.1674 17.62L59.1234 21.796H61.2714L60.2514 17.62H60.1674ZM71.1136 16.6L71.5576 25H70.4296L70.1416 19.072L70.2256 17.632H70.1536L68.5336 24.52L67.1536 24.64L65.2936 17.632H65.2096L65.3536 19.048L65.1496 25H64.1656L64.4896 16.6H66.1696L67.6096 22.24L67.8616 23.56H67.9216L68.1376 22.276L69.4336 16.6H71.1136Z" fill="#181818"/>
<defs>
<clipPath id="clip0_657_3707">
<rect width="56" height="37" fill="white" transform="translate(90)"/>
</clipPath>
</defs>
</svg>
