<svg width="159" height="37" viewBox="0 0 159 37" fill="none" xmlns="http://www.w3.org/2000/svg">
<g clip-path="url(#clip0_657_3706)">
<path d="M132.107 19.0424C133.42 19.4628 134.839 19.4384 136.137 18.973C137.81 18.3749 139.44 17.6545 141.105 17.0273C141.924 16.7178 142.777 16.4575 143.679 16.5708C144.428 16.6621 144.761 17.1807 144.54 17.8709C144.29 18.6507 144.425 18.994 145.136 19.4167C145.711 19.7591 146.319 19.9152 146.994 19.8011C147.481 19.7152 147.971 19.6543 148.464 19.6185C148.752 19.5993 148.869 19.4605 149.022 19.2414C149.691 18.301 150.341 17.3377 151.11 16.4785C151.928 15.5655 153.279 15.4605 154.309 16.1526C154.857 16.5097 155.364 16.9249 155.82 17.3907C156.674 18.2928 157.643 18.9629 158.992 19.1958C158.927 19.4099 158.846 19.6193 158.75 19.8221C158.633 20.001 158.504 20.1715 158.362 20.3325C157.829 21.0264 157.678 21.0766 156.821 20.8474C155.209 20.4165 153.631 20.5425 152.041 21.0301C151.059 21.3295 150.026 21.4628 149.024 21.6993C148.929 21.7253 148.84 21.7699 148.763 21.8305C148.686 21.8911 148.622 21.9663 148.576 22.0517C148.144 23.036 147.75 24.0358 147.333 25.0273C147.265 25.1803 147.143 25.3043 146.989 25.377C146.989 24.159 147.503 23.0789 147.839 21.9467H146.385C144.975 21.9467 144.263 21.4784 143.72 20.2065C143.527 19.75 143.378 19.2076 142.723 19.2642C142.247 19.3045 141.777 19.402 141.325 19.5546C140.28 19.9125 139.255 20.3243 138.218 20.7032C137.933 20.8073 137.633 20.8739 137.248 20.9844C137.392 21.1378 137.527 21.3569 137.593 21.3377C137.762 21.2894 137.9 21.136 138.08 21.0027L138.386 21.2245L138.664 20.9095C138.969 21.4208 138.774 21.8892 138.222 21.9385C137.85 21.9714 137.801 22.1211 137.85 22.4425C137.907 22.8169 137.923 23.196 137.9 23.5738C137.89 23.7272 137.731 23.8714 137.577 24.1216C137.484 23.592 137.42 23.1812 137.324 22.7794C137.258 22.5055 137.125 22.2453 137.045 21.9723C136.965 21.6993 136.923 21.4345 136.853 21.1141C136.342 21.2054 135.73 21.3651 135.11 21.4007C134.174 21.4665 133.234 21.4683 132.297 21.4062C131.482 21.3405 130.846 20.8365 130.312 20.2485C130.101 20.0166 129.972 19.9746 129.668 20.1426C127.796 21.1606 125.905 22.143 124.021 23.1383C123.641 23.3391 123.267 23.5519 122.886 23.7518C122.58 23.9125 122.712 24.1107 122.805 24.328C123.277 25.4291 123.76 26.5266 124.199 27.6386C124.819 29.1999 125.357 30.7813 125.061 32.5188C125.81 32.685 126.467 32.5061 127.114 32.2394C127.282 32.1628 127.455 32.0987 127.632 32.0477C128.468 31.845 128.875 32.0176 129.026 32.832C129.132 33.4045 129.534 33.5752 129.931 33.7505C130.715 34.0984 131.543 34.1267 132.377 33.8875C132.598 33.8245 132.831 33.8026 133.146 33.745C132.854 33.452 132.637 33.1224 132.329 32.9452C131.276 32.3417 131.288 31.3739 131.337 30.3805C131.346 30.153 131.38 29.9271 131.438 29.7067C131.548 29.3058 131.693 29.283 132.002 29.577C132.718 30.2591 133.55 30.711 134.574 30.533C135.126 30.4362 135.726 30.2901 136.172 29.9852C137.346 29.1735 138.223 29.6702 139.06 30.4727C139.456 30.8516 139.796 31.2862 140.219 31.7601V29.7815L140.334 29.7249C140.4 29.7888 140.503 29.8409 140.529 29.9185C140.91 31.0771 141.562 32.0523 142.592 32.738C143.043 33.0374 143.539 33.3196 144.203 33.1945C144.145 32.9662 144.093 32.7544 144.038 32.5435C143.826 31.7272 143.547 30.921 143.42 30.092C143.286 29.2127 143.435 28.3572 144.406 27.8888C145.169 27.5181 146.348 27.5674 146.831 28.5928C147.29 29.5828 147.587 30.6384 147.71 31.7199C147.759 32.1317 147.895 32.2878 148.329 32.3143C149.007 32.3698 149.68 32.4612 150.348 32.5882C150.827 32.6677 151.213 33.1434 151.227 33.6254C151.255 34.544 151.041 35.3967 150.501 36.16C150.354 36.3673 150.208 36.4696 150.061 36.1902C149.656 35.4177 148.917 35.4068 148.216 35.4734C147.317 35.5584 146.424 35.74 145.538 35.9227C144.133 36.2121 142.843 36.0021 141.665 35.1265C141.626 35.2201 141.593 35.3162 141.567 35.4141C141.407 36.265 141.367 36.2751 140.471 36.2075C139.491 36.1345 138.503 36.0249 137.526 36.0797C136.58 36.1317 135.64 36.3436 134.706 36.5289C133.299 36.8083 131.907 37.1735 130.449 36.8941C129.992 36.8155 129.559 36.6377 129.18 36.3736C128.802 36.1095 128.489 35.7658 128.263 35.3675C127.898 34.7594 127.74 34.7348 127.081 35.0215C126.454 35.2954 125.787 35.614 125.093 35.2397C124.816 35.0893 124.585 34.8686 124.425 34.6006C123.943 33.7514 123.881 32.7946 123.932 31.8615C123.97 31.1611 123.799 30.5348 123.536 29.9221C122.768 28.1372 121.97 26.3613 121.191 24.5836C121.08 24.3289 120.96 24.2969 120.663 24.3435C118.597 24.6676 116.553 24.7653 114.769 23.393C113.76 22.6169 113.088 21.5824 112.539 20.4713C112.232 19.8458 111.91 19.2104 111.728 18.5438C111.369 17.2355 111.165 15.8869 111.667 14.573C112.091 13.4591 112.955 12.6675 113.937 12.0019C113.989 11.9718 114.047 11.9523 114.107 11.9444C114.133 11.9398 114.163 11.9599 114.248 11.9873C110.835 15.035 111.367 18.2453 114.112 21.251C115.664 22.9474 117.903 22.8077 120.093 22.3467C119.357 20.947 118.646 19.5911 117.932 18.238C117.161 16.7771 116.274 15.3601 115.642 13.8417C114.778 11.7618 114.353 9.5641 114.483 7.29337C114.597 5.30842 115.48 3.64942 116.813 2.21412C117.463 1.51382 118.216 0.902996 118.929 0.257477C119.053 0.161247 119.185 0.0751369 119.324 0L119.425 0.113216C119.306 0.226433 119.192 0.346042 119.069 0.453781C117.872 1.49556 116.85 2.66242 116.185 4.12146C115.634 5.33033 115.585 6.59306 115.668 7.86493C115.873 11.0524 117.257 13.838 118.79 16.5735C119.653 18.112 120.471 19.6778 121.29 21.2355C121.643 21.9075 121.673 21.9513 122.346 21.5834C123.355 21.0355 124.341 20.4448 125.345 19.8869C126.939 19.0013 128.566 18.1522 130.353 17.7367C131.642 17.4526 132.981 17.4613 134.267 17.7623C134.42 17.7897 134.56 17.8628 134.669 17.9714C134.77 18.0944 134.819 18.251 134.806 18.4087C134.793 18.4927 134.594 18.5913 134.467 18.605C133.889 18.689 133.306 18.7356 132.73 18.8232C132.516 18.8579 132.314 18.9675 132.107 19.0424ZM149.808 19.4468L149.869 19.5902L154.029 18.8442C153.193 18.3311 152.615 17.5103 151.636 17.7385C150.741 17.9467 150.177 18.6351 149.808 19.4468ZM134.654 33.1424L134.74 33.2995L139.045 32.7663L139.138 32.675C139.011 32.5919 138.886 32.5061 138.756 32.4275C138.282 32.139 137.865 31.7501 137.204 32.0368C136.452 32.3636 135.656 32.5846 134.881 32.874C134.784 32.9105 134.729 33.0493 134.654 33.1397V33.1424ZM147.143 32.1418L147.247 32.024C147.01 31.6788 146.794 31.3182 146.533 30.9922C146.069 30.4106 145.213 30.48 144.743 31.1557C145.454 31.7026 146.266 31.9966 147.143 32.1418Z" fill="#55CE5B"/>
<path d="M107.004 8.20575C105.784 8.99462 105.053 9.97979 104.701 11.2115C104.156 13.1243 103.876 15.0745 104.019 17.0695C104.155 18.8888 104.621 20.6693 105.397 22.3268C106.46 24.6414 108.006 26.608 109.874 28.3364C111.24 29.6019 112.847 30.5414 114.466 31.4636C116.221 32.4679 118.098 33.1911 120.023 33.8101C120.766 34.0502 121.494 34.3579 122.226 34.6318C122.33 34.6803 122.429 34.7371 122.523 34.8017C122.518 34.8464 122.512 34.893 122.507 34.935C122.347 34.945 122.175 34.9961 122.028 34.9569C118.226 33.9379 114.587 32.5501 111.315 30.3396C108.043 28.1292 105.529 25.2951 104.203 21.5745C103.751 20.3081 103.494 18.9705 103.213 17.6484C102.893 16.1474 102.985 14.6208 103.153 13.1115C103.276 12.0159 103.425 10.9029 103.763 9.86018C104.333 8.10714 105.128 6.44268 106.655 5.25025C108.227 4.0213 110.4 4.0633 112.02 5.12333C112.266 5.28501 112.47 5.50172 112.614 5.75567C112.758 6.00962 112.839 6.29357 112.85 6.5842C112.904 7.37671 112.864 8.15736 112.504 8.90057C112.241 9.4484 112.177 9.50592 111.659 9.20096C110.472 8.5034 107.942 9.03479 107.402 10.156C107.324 10.3351 107.234 10.5087 107.132 10.6755C107.075 10.7623 106.961 10.8116 106.872 10.8782C106.823 10.7778 106.724 10.6737 106.732 10.5787C106.781 10.0209 106.856 9.46392 106.922 8.90605L107.004 8.20575Z" fill="#55CE5B"/>
<path d="M122.836 12.1813C122.52 12.9172 122.225 13.6541 121.876 14.3644C121.827 14.4621 121.473 14.5169 121.33 14.4493C120.831 14.2144 120.354 13.938 119.903 13.623C119.768 13.5271 119.674 13.2194 119.725 13.0569C119.939 12.3511 120.2 11.6572 120.482 10.9734C120.527 10.8638 120.794 10.7342 120.896 10.7725C121.428 10.9642 121.941 11.2 122.431 11.4774C122.613 11.5869 122.674 11.8846 122.836 12.1813Z" fill="#55CE5B"/>
</g>
<path d="M6.174 28V23.506H2.604V28H1.26V18.2H2.604V22.33H6.174V18.2H7.518V28H6.174ZM13.3693 18.13L16.0853 28H14.6713L14.0133 25.41H10.9053L10.2193 28H8.91734L11.6473 18.298L13.3693 18.13ZM12.4453 19.39L11.2273 24.262H13.7333L12.5433 19.39H12.4453ZM16.7739 20.664C16.7739 19.9173 17.0539 19.292 17.6139 18.788C18.1739 18.284 18.8879 18.032 19.7559 18.032C20.6239 18.032 21.2819 18.2467 21.7299 18.676C22.1779 19.1053 22.4345 19.6933 22.4999 20.44L21.0719 20.58C21.0439 20.1507 20.8992 19.8193 20.6379 19.586C20.3859 19.3527 20.0359 19.236 19.5879 19.236C19.1492 19.236 18.8039 19.3433 18.5519 19.558C18.2999 19.7727 18.1739 20.048 18.1739 20.384C18.1739 20.832 18.3185 21.196 18.6079 21.476C18.8972 21.756 19.3919 22.0733 20.0919 22.428C20.7079 22.7453 21.1279 22.9787 21.3519 23.128C21.5852 23.268 21.8185 23.4453 22.0519 23.66C22.4999 24.0613 22.7239 24.6447 22.7239 25.41C22.7239 26.1753 22.4345 26.8287 21.8559 27.37C21.2772 27.902 20.4979 28.168 19.5179 28.168C18.5379 28.168 17.6092 27.8647 16.7319 27.258L17.3059 26.222C18.1739 26.7167 18.9905 26.964 19.7559 26.964C20.2132 26.964 20.5865 26.852 20.8759 26.628C21.1652 26.3947 21.3099 26.0633 21.3099 25.634C21.3099 25.1953 21.1605 24.85 20.8619 24.598C20.5725 24.346 20.2039 24.1173 19.7559 23.912C19.3172 23.7067 19.0465 23.5807 18.9439 23.534C18.8412 23.478 18.6685 23.3847 18.4259 23.254C18.1832 23.114 18.0059 22.9973 17.8939 22.904C17.7819 22.8107 17.6372 22.68 17.4599 22.512C17.2919 22.3347 17.1705 22.1667 17.0959 22.008C16.8812 21.5693 16.7739 21.1213 16.7739 20.664ZM23.5825 20.664C23.5825 19.9173 23.8625 19.292 24.4225 18.788C24.9825 18.284 25.6965 18.032 26.5645 18.032C27.4325 18.032 28.0905 18.2467 28.5385 18.676C28.9865 19.1053 29.2431 19.6933 29.3085 20.44L27.8805 20.58C27.8525 20.1507 27.7078 19.8193 27.4465 19.586C27.1945 19.3527 26.8445 19.236 26.3965 19.236C25.9578 19.236 25.6125 19.3433 25.3605 19.558C25.1085 19.7727 24.9825 20.048 24.9825 20.384C24.9825 20.832 25.1271 21.196 25.4165 21.476C25.7058 21.756 26.2005 22.0733 26.9005 22.428C27.5165 22.7453 27.9365 22.9787 28.1605 23.128C28.3938 23.268 28.6271 23.4453 28.8605 23.66C29.3085 24.0613 29.5325 24.6447 29.5325 25.41C29.5325 26.1753 29.2431 26.8287 28.6645 27.37C28.0858 27.902 27.3065 28.168 26.3265 28.168C25.3465 28.168 24.4178 27.8647 23.5405 27.258L24.1145 26.222C24.9825 26.7167 25.7991 26.964 26.5645 26.964C27.0218 26.964 27.3951 26.852 27.6845 26.628C27.9738 26.3947 28.1185 26.0633 28.1185 25.634C28.1185 25.1953 27.9691 24.85 27.6705 24.598C27.3811 24.346 27.0125 24.1173 26.5645 23.912C26.1258 23.7067 25.8551 23.5807 25.7525 23.534C25.6498 23.478 25.4771 23.3847 25.2345 23.254C24.9918 23.114 24.8145 22.9973 24.7025 22.904C24.5905 22.8107 24.4458 22.68 24.2685 22.512C24.1005 22.3347 23.9791 22.1667 23.9045 22.008C23.6898 21.5693 23.5825 21.1213 23.5825 20.664ZM34.465 18.13L37.181 28H35.767L35.109 25.41H32.001L31.315 28H30.013L32.743 18.298L34.465 18.13ZM33.541 19.39L32.323 24.262H34.829L33.639 19.39H33.541ZM44.9116 18.2V28H43.4976L40.2496 21.364L39.7876 20.076L39.7176 20.118L39.9556 21.56V28H38.6116V18.2H40.0396L43.2736 25.004L43.7496 26.334L43.8196 26.292L43.5676 24.64V18.2H44.9116ZM51.645 18.2V28H50.301V18.2H51.645ZM53.4282 20.664C53.4282 19.9173 53.7082 19.292 54.2682 18.788C54.8282 18.284 55.5422 18.032 56.4102 18.032C57.2782 18.032 57.9362 18.2467 58.3842 18.676C58.8322 19.1053 59.0888 19.6933 59.1542 20.44L57.7262 20.58C57.6982 20.1507 57.5535 19.8193 57.2922 19.586C57.0402 19.3527 56.6902 19.236 56.2422 19.236C55.8035 19.236 55.4582 19.3433 55.2062 19.558C54.9542 19.7727 54.8282 20.048 54.8282 20.384C54.8282 20.832 54.9728 21.196 55.2622 21.476C55.5515 21.756 56.0462 22.0733 56.7462 22.428C57.3622 22.7453 57.7822 22.9787 58.0062 23.128C58.2395 23.268 58.4728 23.4453 58.7062 23.66C59.1542 24.0613 59.3782 24.6447 59.3782 25.41C59.3782 26.1753 59.0888 26.8287 58.5102 27.37C57.9315 27.902 57.1522 28.168 56.1722 28.168C55.1922 28.168 54.2635 27.8647 53.3862 27.258L53.9602 26.222C54.8282 26.7167 55.6448 26.964 56.4102 26.964C56.8675 26.964 57.2408 26.852 57.5302 26.628C57.8195 26.3947 57.9642 26.0633 57.9642 25.634C57.9642 25.1953 57.8148 24.85 57.5162 24.598C57.2268 24.346 56.8582 24.1173 56.4102 23.912C55.9715 23.7067 55.7008 23.5807 55.5982 23.534C55.4955 23.478 55.3228 23.3847 55.0802 23.254C54.8375 23.114 54.6602 22.9973 54.5482 22.904C54.4362 22.8107 54.2915 22.68 54.1142 22.512C53.9462 22.3347 53.8248 22.1667 53.7502 22.008C53.5355 21.5693 53.4282 21.1213 53.4282 20.664ZM60.2368 20.664C60.2368 19.9173 60.5168 19.292 61.0768 18.788C61.6368 18.284 62.3508 18.032 63.2188 18.032C64.0868 18.032 64.7448 18.2467 65.1928 18.676C65.6408 19.1053 65.8974 19.6933 65.9628 20.44L64.5348 20.58C64.5068 20.1507 64.3621 19.8193 64.1008 19.586C63.8488 19.3527 63.4988 19.236 63.0508 19.236C62.6121 19.236 62.2668 19.3433 62.0148 19.558C61.7628 19.7727 61.6368 20.048 61.6368 20.384C61.6368 20.832 61.7814 21.196 62.0708 21.476C62.3601 21.756 62.8548 22.0733 63.5548 22.428C64.1708 22.7453 64.5908 22.9787 64.8148 23.128C65.0481 23.268 65.2814 23.4453 65.5148 23.66C65.9628 24.0613 66.1868 24.6447 66.1868 25.41C66.1868 26.1753 65.8974 26.8287 65.3188 27.37C64.7401 27.902 63.9608 28.168 62.9808 28.168C62.0008 28.168 61.0721 27.8647 60.1948 27.258L60.7688 26.222C61.6368 26.7167 62.4534 26.964 63.2188 26.964C63.6761 26.964 64.0494 26.852 64.3388 26.628C64.6281 26.3947 64.7728 26.0633 64.7728 25.634C64.7728 25.1953 64.6234 24.85 64.3248 24.598C64.0354 24.346 63.6668 24.1173 63.2188 23.912C62.7801 23.7067 62.5094 23.5807 62.4068 23.534C62.3041 23.478 62.1314 23.3847 61.8888 23.254C61.6461 23.114 61.4688 22.9973 61.3568 22.904C61.2448 22.8107 61.1001 22.68 60.9228 22.512C60.7548 22.3347 60.6334 22.1667 60.5588 22.008C60.3441 21.5693 60.2368 21.1213 60.2368 20.664ZM71.1193 18.13L73.8353 28H72.4213L71.7633 25.41H68.6553L67.9693 28H66.6673L69.3973 18.298L71.1193 18.13ZM70.1953 19.39L68.9773 24.262H71.4833L70.2933 19.39H70.1953ZM82.9659 18.2L83.4839 28H82.1679L81.8319 21.084L81.9299 19.404H81.8459L79.9559 27.44L78.3459 27.58L76.1759 19.404H76.0779L76.2459 21.056L76.0079 28H74.8599L75.2379 18.2H77.1979L78.8779 24.78L79.1719 26.32H79.2419L79.4939 24.822L81.0059 18.2H82.9659Z" fill="#181818"/>
<defs>
<clipPath id="clip0_657_3706">
<rect width="56" height="37" fill="white" transform="translate(103)"/>
</clipPath>
</defs>
</svg>
