<svg width="56" height="37" viewBox="0 0 56 37" fill="none" xmlns="http://www.w3.org/2000/svg">
<g clip-path="url(#clip0_654_82)">
<path d="M29.1069 19.0424C30.4204 19.4628 31.8394 19.4384 33.137 18.973C34.8096 18.3749 36.4404 17.6545 38.1047 17.0273C38.9242 16.7178 39.7773 16.4575 40.6786 16.5708C41.4276 16.6621 41.7612 17.1807 41.54 17.8709C41.2901 18.6507 41.4248 18.994 42.1357 19.4167C42.7108 19.7591 43.3186 19.9152 43.9941 19.8011C44.4806 19.7152 44.9712 19.6543 45.4642 19.6185C45.7522 19.5993 45.8693 19.4605 46.0217 19.2414C46.6907 18.301 47.3412 17.3377 48.1097 16.4785C48.9283 15.5655 50.2794 15.4605 51.309 16.1526C51.8573 16.5097 52.364 16.9249 52.8199 17.3907C53.6739 18.2928 54.6431 18.9629 55.9923 19.1958C55.9268 19.4099 55.8457 19.6193 55.7498 19.8221C55.633 20.001 55.5035 20.1715 55.3623 20.3325C54.8289 21.0264 54.6784 21.0766 53.8207 20.8474C52.2085 20.4165 50.6307 20.5425 49.0408 21.0301C48.0595 21.3295 47.0262 21.4628 46.0235 21.6993C45.9285 21.7253 45.8399 21.7699 45.7629 21.8305C45.6859 21.8911 45.6222 21.9663 45.5757 22.0517C45.1436 23.036 44.7496 24.0358 44.3333 25.0273C44.2646 25.1803 44.1427 25.3043 43.9895 25.377C43.9895 24.159 44.5033 23.0789 44.8388 21.9467H43.3845C41.9749 21.9467 41.2631 21.4784 40.7204 20.2065C40.5272 19.75 40.3785 19.2076 39.7234 19.2642C39.2469 19.3045 38.7772 19.402 38.3249 19.5546C37.2804 19.9125 36.2555 20.3243 35.2185 20.7032C34.9332 20.8073 34.6331 20.8739 34.2484 20.9844C34.3924 21.1378 34.5271 21.3569 34.5931 21.3377C34.7622 21.2894 34.8997 21.136 35.08 21.0027L35.3857 21.2245L35.6645 20.9095C35.9693 21.4208 35.7741 21.8892 35.2222 21.9385C34.8505 21.9714 34.8012 22.1211 34.8505 22.4425C34.9068 22.8169 34.9233 23.196 34.8997 23.5738C34.8895 23.7272 34.7306 23.8714 34.5773 24.1216C34.4844 23.592 34.4203 23.1812 34.3236 22.7794C34.2576 22.5055 34.1248 22.2453 34.0449 21.9723C33.9649 21.6993 33.9231 21.4345 33.8534 21.1141C33.3424 21.2054 32.73 21.3651 32.1102 21.4007C31.1739 21.4665 30.234 21.4683 29.2974 21.4062C28.4816 21.3405 27.846 20.8365 27.3117 20.2485C27.1007 20.0166 26.9725 19.9746 26.6677 20.1426C24.7962 21.1606 22.9052 22.143 21.0208 23.1383C20.6407 23.3391 20.2672 23.5519 19.8862 23.7518C19.5805 23.9125 19.7124 24.1107 19.8053 24.328C20.2774 25.4291 20.7597 26.5266 21.1992 27.6386C21.819 29.1999 22.357 30.7813 22.0606 32.5188C22.8105 32.685 23.4674 32.5061 24.1142 32.2394C24.2815 32.1628 24.4546 32.0987 24.6318 32.0477C25.4681 31.845 25.8751 32.0176 26.0256 32.832C26.1315 33.4045 26.5339 33.5752 26.9307 33.7505C27.7149 34.0984 28.5429 34.1267 29.3773 33.8875C29.5976 33.8245 29.8308 33.8026 30.1458 33.745C29.854 33.452 29.6366 33.1224 29.329 32.9452C28.2762 32.3417 28.2883 31.3739 28.3366 30.3805C28.3456 30.153 28.3796 29.9271 28.4379 29.7067C28.5485 29.3058 28.6934 29.283 29.0019 29.577C29.7184 30.2591 30.55 30.711 31.574 30.533C32.126 30.4362 32.7263 30.2901 33.1723 29.9852C34.3459 29.1735 35.2231 29.6702 36.0604 30.4727C36.4562 30.8516 36.7963 31.2862 37.2191 31.7601V29.7815L37.3343 29.7249C37.4003 29.7888 37.5025 29.8409 37.5285 29.9185C37.9095 31.0771 38.5618 32.0523 39.5924 32.738C40.043 33.0374 40.5392 33.3196 41.2027 33.1945C41.1451 32.9662 41.0931 32.7544 41.0382 32.5435C40.8264 31.7272 40.5467 30.921 40.4203 30.092C40.2865 29.2127 40.4352 28.3572 41.4062 27.8888C42.1691 27.5181 43.3483 27.5674 43.8306 28.5928C44.2904 29.5828 44.5871 30.6384 44.7096 31.7199C44.7589 32.1317 44.8955 32.2878 45.3294 32.3143C46.0067 32.3698 46.6805 32.4612 47.3477 32.5882C47.8272 32.6677 48.2128 33.1434 48.2268 33.6254C48.2546 34.544 48.0409 35.3967 47.501 36.16C47.3542 36.3673 47.2083 36.4696 47.0615 36.1902C46.6564 35.4177 45.9167 35.4068 45.216 35.4734C44.3166 35.5584 43.4245 35.74 42.538 35.9227C41.133 36.2121 39.8432 36.0021 38.665 35.1265C38.6261 35.2201 38.5935 35.3162 38.5674 35.4141C38.4067 36.265 38.3667 36.2751 37.4709 36.2075C36.4906 36.1345 35.5028 36.0249 34.5262 36.0797C33.5802 36.1317 32.6399 36.3436 31.706 36.5289C30.2991 36.8083 28.9071 37.1735 27.4492 36.8941C26.9921 36.8155 26.5586 36.6377 26.1804 36.3736C25.8021 36.1095 25.4886 35.7658 25.2627 35.3675C24.8975 34.7594 24.7405 34.7348 24.0807 35.0215C23.4544 35.2954 22.7872 35.614 22.0931 35.2397C21.8161 35.0893 21.5854 34.8686 21.425 34.6006C20.9427 33.7514 20.8814 32.7946 20.9316 31.8615C20.9697 31.1612 20.7987 30.5348 20.5357 29.9222C19.7682 28.1372 18.97 26.3613 18.1913 24.5836C18.0798 24.3289 17.9599 24.2969 17.6625 24.3435C15.5969 24.6676 13.5535 24.7653 11.7694 23.393C10.7602 22.6169 10.0884 21.5824 9.5392 20.4713C9.23163 19.8458 8.91011 19.2104 8.72799 18.5438C8.3693 17.2355 8.16487 15.8869 8.66666 14.573C9.09131 13.4591 9.9555 12.6675 10.9368 12.0019C10.989 11.9718 11.0468 11.9523 11.1068 11.9444C11.1328 11.9398 11.1635 11.9599 11.2481 11.9873C7.835 15.035 8.36744 18.2453 11.1124 21.251C12.6642 22.9474 14.9027 22.8077 17.0929 22.3467C16.357 20.947 15.6461 19.5911 14.9325 18.238C14.1612 16.7771 13.2738 15.3601 12.6419 13.8417C11.7777 11.7618 11.3531 9.5641 11.4832 7.29337C11.5974 5.30842 12.4802 3.64942 13.8127 2.21412C14.4632 1.51382 15.2159 0.902996 15.9286 0.257477C16.0529 0.161247 16.185 0.0751369 16.3235 0L16.4248 0.113216C16.3059 0.226433 16.1925 0.346042 16.0689 0.453781C14.8721 1.49556 13.8499 2.66242 13.1846 4.12146C12.6335 5.33033 12.5852 6.59306 12.6679 7.86493C12.8733 11.0524 14.2569 13.838 15.7901 16.5735C16.6534 18.112 17.4711 19.6778 18.2898 21.2355C18.6429 21.9075 18.6726 21.9513 19.3463 21.5834C20.3545 21.0355 21.3414 20.4448 22.3449 19.8869C23.9395 19.0013 25.5656 18.1522 27.3525 17.7367C28.6425 17.4526 29.9814 17.4613 31.2674 17.7623C31.4199 17.7897 31.5601 17.8628 31.6688 17.9714C31.7702 18.0944 31.8194 18.251 31.8063 18.4087C31.7933 18.4927 31.5935 18.5913 31.4672 18.605C30.8892 18.689 30.3056 18.7356 29.7295 18.8232C29.5158 18.8579 29.3141 18.9675 29.1069 19.0424ZM46.8078 19.4468L46.8692 19.5902L51.0293 18.8442C50.193 18.3311 49.615 17.5103 48.6356 17.7385C47.7408 17.9467 47.1767 18.6351 46.8078 19.4468ZM31.6539 33.1424L31.7404 33.2995L36.0455 32.7663L36.1384 32.675C36.0111 32.5919 35.8857 32.5061 35.7565 32.4275C35.2817 32.139 34.8654 31.7501 34.2037 32.0368C33.452 32.3636 32.6557 32.5846 31.8807 32.874C31.784 32.9105 31.7292 33.0493 31.6539 33.1397V33.1424ZM44.1428 32.1418L44.2469 32.024C44.0099 31.6788 43.7943 31.3182 43.5332 30.9922C43.0686 30.4106 42.2128 30.48 41.7426 31.1557C42.4544 31.7026 43.2656 31.9966 44.1428 32.1418Z" fill="#55CE5B"/>
<path d="M4.00413 8.20575C2.78406 8.99462 2.05275 9.97979 1.70058 11.2115C1.15605 13.1243 0.876349 15.0745 1.01852 17.0695C1.15455 18.8888 1.62128 20.6693 2.39657 22.3268C3.45961 24.6414 5.00584 26.608 6.8736 28.3364C8.24049 29.6019 9.84713 30.5414 11.4658 31.4636C13.2212 32.4679 15.0982 33.1911 17.0226 33.8101C17.766 34.0502 18.4936 34.3579 19.2258 34.6318C19.3296 34.6803 19.429 34.7371 19.5232 34.8017C19.5176 34.8464 19.512 34.893 19.5074 34.935C19.3466 34.945 19.1747 34.9961 19.0279 34.9569C15.2255 33.9379 11.5866 32.5501 8.31483 30.3396C5.04301 28.1292 2.52945 25.2951 1.20251 21.5745C0.750904 20.3081 0.493506 18.9705 0.212879 17.6484C-0.106776 16.1474 -0.014782 14.6208 0.153408 13.1115C0.276067 12.0159 0.424743 10.9029 0.762983 9.86018C1.3326 8.10714 2.12802 6.44268 3.65474 5.25025C5.227 4.0213 7.40047 4.0633 9.02012 5.12333C9.26615 5.28501 9.46964 5.50172 9.61389 5.75567C9.75813 6.00962 9.83903 6.29357 9.84992 6.5842C9.90381 7.37671 9.86385 8.15736 9.50424 8.90057C9.24127 9.4484 9.17715 9.50592 8.65864 9.20096C7.47202 8.5034 4.94173 9.03479 4.40184 10.156C4.32436 10.3351 4.23431 10.5087 4.13237 10.6755C4.07476 10.7623 3.96139 10.8116 3.87218 10.8782C3.82293 10.7778 3.72351 10.6737 3.73187 10.5787C3.78112 10.0209 3.85639 9.46392 3.92236 8.90605L4.00413 8.20575Z" fill="#55CE5B"/>
<path d="M19.8357 12.1813C19.5198 12.9172 19.2252 13.6541 18.8758 14.3644C18.8275 14.4621 18.4725 14.5169 18.3304 14.4493C17.8314 14.2144 17.3539 13.938 16.9031 13.623C16.7683 13.5271 16.6745 13.2194 16.7247 13.0569C16.9393 12.3511 17.2004 11.6572 17.482 10.9734C17.5266 10.8638 17.7942 10.7342 17.8964 10.7725C18.4276 10.9642 18.9411 11.2 19.4315 11.4774C19.6127 11.5869 19.674 11.8846 19.8357 12.1813Z" fill="#55CE5B"/>
</g>
<defs>
<clipPath id="clip0_654_82">
<rect width="56" height="37" fill="white"/>
</clipPath>
</defs>
</svg>
