<svg width="159" height="37" viewBox="0 0 159 37" fill="none" xmlns="http://www.w3.org/2000/svg">
<g clip-path="url(#clip0_657_3706)">
<path d="M132.107 19.0424C133.42 19.4628 134.839 19.4384 136.137 18.973C137.81 18.3749 139.44 17.6545 141.105 17.0273C141.924 16.7178 142.777 16.4575 143.679 16.5708C144.428 16.6621 144.761 17.1807 144.54 17.8709C144.29 18.6507 144.425 18.994 145.136 19.4167C145.711 19.7591 146.319 19.9152 146.994 19.8011C147.481 19.7152 147.971 19.6543 148.464 19.6185C148.752 19.5993 148.869 19.4605 149.022 19.2414C149.691 18.301 150.341 17.3377 151.11 16.4785C151.928 15.5655 153.279 15.4605 154.309 16.1526C154.857 16.5097 155.364 16.9249 155.82 17.3907C156.674 18.2928 157.643 18.9629 158.992 19.1958C158.927 19.4099 158.846 19.6193 158.75 19.8221C158.633 20.001 158.504 20.1715 158.362 20.3325C157.829 21.0264 157.678 21.0766 156.821 20.8474C155.209 20.4165 153.631 20.5425 152.041 21.0301C151.059 21.3295 150.026 21.4628 149.024 21.6993C148.929 21.7253 148.84 21.7699 148.763 21.8305C148.686 21.8911 148.622 21.9663 148.576 22.0517C148.144 23.036 147.75 24.0358 147.333 25.0273C147.265 25.1803 147.143 25.3043 146.989 25.377C146.989 24.159 147.503 23.0789 147.839 21.9467H146.385C144.975 21.9467 144.263 21.4784 143.72 20.2065C143.527 19.75 143.378 19.2076 142.723 19.2642C142.247 19.3045 141.777 19.402 141.325 19.5546C140.28 19.9125 139.255 20.3243 138.218 20.7032C137.933 20.8073 137.633 20.8739 137.248 20.9844C137.392 21.1378 137.527 21.3569 137.593 21.3377C137.762 21.2894 137.9 21.136 138.08 21.0027L138.386 21.2245L138.664 20.9095C138.969 21.4208 138.774 21.8892 138.222 21.9385C137.85 21.9714 137.801 22.1211 137.85 22.4425C137.907 22.8169 137.923 23.196 137.9 23.5738C137.89 23.7272 137.731 23.8714 137.577 24.1216C137.484 23.592 137.42 23.1812 137.324 22.7794C137.258 22.5055 137.125 22.2453 137.045 21.9723C136.965 21.6993 136.923 21.4345 136.853 21.1141C136.342 21.2054 135.73 21.3651 135.11 21.4007C134.174 21.4665 133.234 21.4683 132.297 21.4062C131.482 21.3405 130.846 20.8365 130.312 20.2485C130.101 20.0166 129.972 19.9746 129.668 20.1426C127.796 21.1606 125.905 22.143 124.021 23.1383C123.641 23.3391 123.267 23.5519 122.886 23.7518C122.58 23.9125 122.712 24.1107 122.805 24.328C123.277 25.4291 123.76 26.5266 124.199 27.6386C124.819 29.1999 125.357 30.7813 125.061 32.5188C125.81 32.685 126.467 32.5061 127.114 32.2394C127.282 32.1628 127.455 32.0987 127.632 32.0477C128.468 31.845 128.875 32.0176 129.026 32.832C129.132 33.4045 129.534 33.5752 129.931 33.7505C130.715 34.0984 131.543 34.1267 132.377 33.8875C132.598 33.8245 132.831 33.8026 133.146 33.745C132.854 33.452 132.637 33.1224 132.329 32.9452C131.276 32.3417 131.288 31.3739 131.337 30.3805C131.346 30.153 131.38 29.9271 131.438 29.7067C131.548 29.3058 131.693 29.283 132.002 29.577C132.718 30.2591 133.55 30.711 134.574 30.533C135.126 30.4362 135.726 30.2901 136.172 29.9852C137.346 29.1735 138.223 29.6702 139.06 30.4727C139.456 30.8516 139.796 31.2862 140.219 31.7601V29.7815L140.334 29.7249C140.4 29.7888 140.503 29.8409 140.529 29.9185C140.91 31.0771 141.562 32.0523 142.592 32.738C143.043 33.0374 143.539 33.3196 144.203 33.1945C144.145 32.9662 144.093 32.7544 144.038 32.5435C143.826 31.7272 143.547 30.921 143.42 30.092C143.286 29.2127 143.435 28.3572 144.406 27.8888C145.169 27.5181 146.348 27.5674 146.831 28.5928C147.29 29.5828 147.587 30.6384 147.71 31.7199C147.759 32.1317 147.895 32.2878 148.329 32.3143C149.007 32.3698 149.68 32.4612 150.348 32.5882C150.827 32.6677 151.213 33.1434 151.227 33.6254C151.255 34.544 151.041 35.3967 150.501 36.16C150.354 36.3673 150.208 36.4696 150.061 36.1902C149.656 35.4177 148.917 35.4068 148.216 35.4734C147.317 35.5584 146.424 35.74 145.538 35.9227C144.133 36.2121 142.843 36.0021 141.665 35.1265C141.626 35.2201 141.593 35.3162 141.567 35.4141C141.407 36.265 141.367 36.2751 140.471 36.2075C139.491 36.1345 138.503 36.0249 137.526 36.0797C136.58 36.1317 135.64 36.3436 134.706 36.5289C133.299 36.8083 131.907 37.1735 130.449 36.8941C129.992 36.8155 129.559 36.6377 129.18 36.3736C128.802 36.1095 128.489 35.7658 128.263 35.3675C127.898 34.7594 127.74 34.7348 127.081 35.0215C126.454 35.2954 125.787 35.614 125.093 35.2397C124.816 35.0893 124.585 34.8686 124.425 34.6006C123.943 33.7514 123.881 32.7946 123.932 31.8615C123.97 31.1611 123.799 30.5348 123.536 29.9221C122.768 28.1372 121.97 26.3613 121.191 24.5836C121.08 24.3289 120.96 24.2969 120.663 24.3435C118.597 24.6676 116.553 24.7653 114.769 23.393C113.76 22.6169 113.088 21.5824 112.539 20.4713C112.232 19.8458 111.91 19.2104 111.728 18.5438C111.369 17.2355 111.165 15.8869 111.667 14.573C112.091 13.4591 112.955 12.6675 113.937 12.0019C113.989 11.9718 114.047 11.9523 114.107 11.9444C114.133 11.9398 114.163 11.9599 114.248 11.9873C110.835 15.035 111.367 18.2453 114.112 21.251C115.664 22.9474 117.903 22.8077 120.093 22.3467C119.357 20.947 118.646 19.5911 117.932 18.238C117.161 16.7771 116.274 15.3601 115.642 13.8417C114.778 11.7618 114.353 9.5641 114.483 7.29337C114.597 5.30842 115.48 3.64942 116.813 2.21412C117.463 1.51382 118.216 0.902996 118.929 0.257477C119.053 0.161247 119.185 0.0751369 119.324 0L119.425 0.113216C119.306 0.226433 119.192 0.346042 119.069 0.453781C117.872 1.49556 116.85 2.66242 116.185 4.12146C115.634 5.33033 115.585 6.59306 115.668 7.86493C115.873 11.0524 117.257 13.838 118.79 16.5735C119.653 18.112 120.471 19.6778 121.29 21.2355C121.643 21.9075 121.673 21.9513 122.346 21.5834C123.355 21.0355 124.341 20.4448 125.345 19.8869C126.939 19.0013 128.566 18.1522 130.353 17.7367C131.642 17.4526 132.981 17.4613 134.267 17.7623C134.42 17.7897 134.56 17.8628 134.669 17.9714C134.77 18.0944 134.819 18.251 134.806 18.4087C134.793 18.4927 134.594 18.5913 134.467 18.605C133.889 18.689 133.306 18.7356 132.73 18.8232C132.516 18.8579 132.314 18.9675 132.107 19.0424ZM149.808 19.4468L149.869 19.5902L154.029 18.8442C153.193 18.3311 152.615 17.5103 151.636 17.7385C150.741 17.9467 150.177 18.6351 149.808 19.4468ZM134.654 33.1424L134.74 33.2995L139.045 32.7663L139.138 32.675C139.011 32.5919 138.886 32.5061 138.756 32.4275C138.282 32.139 137.865 31.7501 137.204 32.0368C136.452 32.3636 135.656 32.5846 134.881 32.874C134.784 32.9105 134.729 33.0493 134.654 33.1397V33.1424ZM147.143 32.1418L147.247 32.024C147.01 31.6788 146.794 31.3182 146.533 30.9922C146.069 30.4106 145.213 30.48 144.743 31.1557C145.454 31.7026 146.266 31.9966 147.143 32.1418Z" fill="#55CE5B"/>
<path d="M107.004 8.20575C105.784 8.99462 105.053 9.97979 104.701 11.2115C104.156 13.1243 103.876 15.0745 104.019 17.0695C104.155 18.8888 104.621 20.6693 105.397 22.3268C106.46 24.6414 108.006 26.608 109.874 28.3364C111.24 29.6019 112.847 30.5414 114.466 31.4636C116.221 32.4679 118.098 33.1911 120.023 33.8101C120.766 34.0502 121.494 34.3579 122.226 34.6318C122.33 34.6803 122.429 34.7371 122.523 34.8017C122.518 34.8464 122.512 34.893 122.507 34.935C122.347 34.945 122.175 34.9961 122.028 34.9569C118.226 33.9379 114.587 32.5501 111.315 30.3396C108.043 28.1292 105.529 25.2951 104.203 21.5745C103.751 20.3081 103.494 18.9705 103.213 17.6484C102.893 16.1474 102.985 14.6208 103.153 13.1115C103.276 12.0159 103.425 10.9029 103.763 9.86018C104.333 8.10714 105.128 6.44268 106.655 5.25025C108.227 4.0213 110.4 4.0633 112.02 5.12333C112.266 5.28501 112.47 5.50172 112.614 5.75567C112.758 6.00962 112.839 6.29357 112.85 6.5842C112.904 7.37671 112.864 8.15736 112.504 8.90057C112.241 9.4484 112.177 9.50592 111.659 9.20096C110.472 8.5034 107.942 9.03479 107.402 10.156C107.324 10.3351 107.234 10.5087 107.132 10.6755C107.075 10.7623 106.961 10.8116 106.872 10.8782C106.823 10.7778 106.724 10.6737 106.732 10.5787C106.781 10.0209 106.856 9.46392 106.922 8.90605L107.004 8.20575Z" fill="#55CE5B"/>
<path d="M122.836 12.1813C122.52 12.9172 122.225 13.6541 121.876 14.3644C121.827 14.4621 121.473 14.5169 121.33 14.4493C120.831 14.2144 120.354 13.938 119.903 13.623C119.768 13.5271 119.674 13.2194 119.725 13.0569C119.939 12.3511 120.2 11.6572 120.482 10.9734C120.527 10.8638 120.794 10.7342 120.896 10.7725C121.428 10.9642 121.941 11.2 122.431 11.4774C122.613 11.5869 122.674 11.8846 122.836 12.1813Z" fill="#55CE5B"/>
</g>
<path d="M6.174 26V21.506H2.604V26H1.26V16.2H2.604V20.33H6.174V16.2H7.518V26H6.174ZM13.3693 16.13L16.0853 26H14.6713L14.0133 23.41H10.9053L10.2193 26H8.91734L11.6473 16.298L13.3693 16.13ZM12.4453 17.39L11.2273 22.262H13.7333L12.5433 17.39H12.4453ZM16.7739 18.664C16.7739 17.9173 17.0539 17.292 17.6139 16.788C18.1739 16.284 18.8879 16.032 19.7559 16.032C20.6239 16.032 21.2819 16.2467 21.7299 16.676C22.1779 17.1053 22.4345 17.6933 22.4999 18.44L21.0719 18.58C21.0439 18.1507 20.8992 17.8193 20.6379 17.586C20.3859 17.3527 20.0359 17.236 19.5879 17.236C19.1492 17.236 18.8039 17.3433 18.5519 17.558C18.2999 17.7727 18.1739 18.048 18.1739 18.384C18.1739 18.832 18.3185 19.196 18.6079 19.476C18.8972 19.756 19.3919 20.0733 20.0919 20.428C20.7079 20.7453 21.1279 20.9787 21.3519 21.128C21.5852 21.268 21.8185 21.4453 22.0519 21.66C22.4999 22.0613 22.7239 22.6447 22.7239 23.41C22.7239 24.1753 22.4345 24.8287 21.8559 25.37C21.2772 25.902 20.4979 26.168 19.5179 26.168C18.5379 26.168 17.6092 25.8647 16.7319 25.258L17.3059 24.222C18.1739 24.7167 18.9905 24.964 19.7559 24.964C20.2132 24.964 20.5865 24.852 20.8759 24.628C21.1652 24.3947 21.3099 24.0633 21.3099 23.634C21.3099 23.1953 21.1605 22.85 20.8619 22.598C20.5725 22.346 20.2039 22.1173 19.7559 21.912C19.3172 21.7067 19.0465 21.5807 18.9439 21.534C18.8412 21.478 18.6685 21.3847 18.4259 21.254C18.1832 21.114 18.0059 20.9973 17.8939 20.904C17.7819 20.8107 17.6372 20.68 17.4599 20.512C17.2919 20.3347 17.1705 20.1667 17.0959 20.008C16.8812 19.5693 16.7739 19.1213 16.7739 18.664ZM23.5825 18.664C23.5825 17.9173 23.8625 17.292 24.4225 16.788C24.9825 16.284 25.6965 16.032 26.5645 16.032C27.4325 16.032 28.0905 16.2467 28.5385 16.676C28.9865 17.1053 29.2431 17.6933 29.3085 18.44L27.8805 18.58C27.8525 18.1507 27.7078 17.8193 27.4465 17.586C27.1945 17.3527 26.8445 17.236 26.3965 17.236C25.9578 17.236 25.6125 17.3433 25.3605 17.558C25.1085 17.7727 24.9825 18.048 24.9825 18.384C24.9825 18.832 25.1271 19.196 25.4165 19.476C25.7058 19.756 26.2005 20.0733 26.9005 20.428C27.5165 20.7453 27.9365 20.9787 28.1605 21.128C28.3938 21.268 28.6271 21.4453 28.8605 21.66C29.3085 22.0613 29.5325 22.6447 29.5325 23.41C29.5325 24.1753 29.2431 24.8287 28.6645 25.37C28.0858 25.902 27.3065 26.168 26.3265 26.168C25.3465 26.168 24.4178 25.8647 23.5405 25.258L24.1145 24.222C24.9825 24.7167 25.7991 24.964 26.5645 24.964C27.0218 24.964 27.3951 24.852 27.6845 24.628C27.9738 24.3947 28.1185 24.0633 28.1185 23.634C28.1185 23.1953 27.9691 22.85 27.6705 22.598C27.3811 22.346 27.0125 22.1173 26.5645 21.912C26.1258 21.7067 25.8551 21.5807 25.7525 21.534C25.6498 21.478 25.4771 21.3847 25.2345 21.254C24.9918 21.114 24.8145 20.9973 24.7025 20.904C24.5905 20.8107 24.4458 20.68 24.2685 20.512C24.1005 20.3347 23.9791 20.1667 23.9045 20.008C23.6898 19.5693 23.5825 19.1213 23.5825 18.664ZM34.465 16.13L37.181 26H35.767L35.109 23.41H32.001L31.315 26H30.013L32.743 16.298L34.465 16.13ZM33.541 17.39L32.323 22.262H34.829L33.639 17.39H33.541ZM44.9116 16.2V26H43.4976L40.2496 19.364L39.7876 18.076L39.7176 18.118L39.9556 19.56V26H38.6116V16.2H40.0396L43.2736 23.004L43.7496 24.334L43.8196 24.292L43.5676 22.64V16.2H44.9116ZM51.645 16.2V26H50.301V16.2H51.645ZM53.4282 18.664C53.4282 17.9173 53.7082 17.292 54.2682 16.788C54.8282 16.284 55.5422 16.032 56.4102 16.032C57.2782 16.032 57.9362 16.2467 58.3842 16.676C58.8322 17.1053 59.0888 17.6933 59.1542 18.44L57.7262 18.58C57.6982 18.1507 57.5535 17.8193 57.2922 17.586C57.0402 17.3527 56.6902 17.236 56.2422 17.236C55.8035 17.236 55.4582 17.3433 55.2062 17.558C54.9542 17.7727 54.8282 18.048 54.8282 18.384C54.8282 18.832 54.9728 19.196 55.2622 19.476C55.5515 19.756 56.0462 20.0733 56.7462 20.428C57.3622 20.7453 57.7822 20.9787 58.0062 21.128C58.2395 21.268 58.4728 21.4453 58.7062 21.66C59.1542 22.0613 59.3782 22.6447 59.3782 23.41C59.3782 24.1753 59.0888 24.8287 58.5102 25.37C57.9315 25.902 57.1522 26.168 56.1722 26.168C55.1922 26.168 54.2635 25.8647 53.3862 25.258L53.9602 24.222C54.8282 24.7167 55.6448 24.964 56.4102 24.964C56.8675 24.964 57.2408 24.852 57.5302 24.628C57.8195 24.3947 57.9642 24.0633 57.9642 23.634C57.9642 23.1953 57.8148 22.85 57.5162 22.598C57.2268 22.346 56.8582 22.1173 56.4102 21.912C55.9715 21.7067 55.7008 21.5807 55.5982 21.534C55.4955 21.478 55.3228 21.3847 55.0802 21.254C54.8375 21.114 54.6602 20.9973 54.5482 20.904C54.4362 20.8107 54.2915 20.68 54.1142 20.512C53.9462 20.3347 53.8248 20.1667 53.7502 20.008C53.5355 19.5693 53.4282 19.1213 53.4282 18.664ZM60.2368 18.664C60.2368 17.9173 60.5168 17.292 61.0768 16.788C61.6368 16.284 62.3508 16.032 63.2188 16.032C64.0868 16.032 64.7448 16.2467 65.1928 16.676C65.6408 17.1053 65.8974 17.6933 65.9628 18.44L64.5348 18.58C64.5068 18.1507 64.3621 17.8193 64.1008 17.586C63.8488 17.3527 63.4988 17.236 63.0508 17.236C62.6121 17.236 62.2668 17.3433 62.0148 17.558C61.7628 17.7727 61.6368 18.048 61.6368 18.384C61.6368 18.832 61.7814 19.196 62.0708 19.476C62.3601 19.756 62.8548 20.0733 63.5548 20.428C64.1708 20.7453 64.5908 20.9787 64.8148 21.128C65.0481 21.268 65.2814 21.4453 65.5148 21.66C65.9628 22.0613 66.1868 22.6447 66.1868 23.41C66.1868 24.1753 65.8974 24.8287 65.3188 25.37C64.7401 25.902 63.9608 26.168 62.9808 26.168C62.0008 26.168 61.0721 25.8647 60.1948 25.258L60.7688 24.222C61.6368 24.7167 62.4534 24.964 63.2188 24.964C63.6761 24.964 64.0494 24.852 64.3388 24.628C64.6281 24.3947 64.7728 24.0633 64.7728 23.634C64.7728 23.1953 64.6234 22.85 64.3248 22.598C64.0354 22.346 63.6668 22.1173 63.2188 21.912C62.7801 21.7067 62.5094 21.5807 62.4068 21.534C62.3041 21.478 62.1314 21.3847 61.8888 21.254C61.6461 21.114 61.4688 20.9973 61.3568 20.904C61.2448 20.8107 61.1001 20.68 60.9228 20.512C60.7548 20.3347 60.6334 20.1667 60.5588 20.008C60.3441 19.5693 60.2368 19.1213 60.2368 18.664ZM71.1193 16.13L73.8353 26H72.4213L71.7633 23.41H68.6553L67.9693 26H66.6673L69.3973 16.298L71.1193 16.13ZM70.1953 17.39L68.9773 22.262H71.4833L70.2933 17.39H70.1953ZM82.9659 16.2L83.4839 26H82.1679L81.8319 19.084L81.9299 17.404H81.8459L79.9559 25.44L78.3459 25.58L76.1759 17.404H76.0779L76.2459 19.056L76.0079 26H74.8599L75.2379 16.2H77.1979L78.8779 22.78L79.1719 24.32H79.2419L79.4939 22.822L81.0059 16.2H82.9659Z" fill="#181818"/>
<defs>
<clipPath id="clip0_657_3706">
<rect width="56" height="37" fill="white" transform="translate(103)"/>
</clipPath>
</defs>
</svg>
