<svg width="785" height="217" viewBox="0 0 785 217" fill="none" xmlns="http://www.w3.org/2000/svg">
<g clip-path="url(#clip0_660_3824)">
<path d="M123.81 96.6077C80.3533 91.0261 40.1341 70.6824 9.88802 38.9839C-20.358 7.28532 -38.7942 -33.8432 -42.3329 -77.5136" stroke="#DBFFD4" stroke-width="2"/>
<path d="M126.319 77.0779C103.992 74.2102 82.4494 66.9731 62.9199 55.7798C43.3903 44.5865 26.2566 29.6561 12.4972 11.8412C-1.26231 -5.97373 -11.3781 -26.3243 -17.2728 -48.0487C-23.1674 -69.7731 -24.7253 -92.4458 -21.8577 -114.772" stroke="#DBFFD4" stroke-width="2"/>
<path d="M128.836 57.5324C91.9177 52.7905 58.031 34.6418 33.6241 6.53945C9.21711 -21.5629 -4.00672 -57.6573 -3.53115 -94.8758" stroke="#DBFFD4" stroke-width="2"/>
<path d="M138.337 41.9713C109.516 38.2694 82.7213 25.1608 62.1093 4.67862C41.4973 -15.8036 28.2198 -42.5148 24.336 -71.3123" stroke="#DBFFD4" stroke-width="2"/>
<path d="M138.337 41.9713C109.516 38.2694 82.7213 25.1608 62.1093 4.67862C41.4973 -15.8036 28.2198 -42.5148 24.336 -71.3123" stroke="#F5FFF3" stroke-width="2"/>
<path d="M128.994 38.4462C153.932 41.1091 178.1 48.6577 200.12 60.6609C222.14 72.6641 241.58 88.887 257.33 108.403" stroke="#DBFFD4" stroke-width="2"/>
<path d="M127.167 58.1145C149.553 60.5049 171.248 67.2809 191.014 78.0557C210.78 88.8305 228.231 103.393 242.369 120.912" stroke="#DBFFD4" stroke-width="2"/>
<path d="M125.566 77.1613C145.398 79.2791 164.618 85.2935 182.128 94.8613C199.638 104.429 215.096 117.363 227.618 132.924" stroke="#DBFFD4" stroke-width="2"/>
<path d="M123.583 96.6125C140.807 98.4517 157.5 103.665 172.709 111.956C187.918 120.247 201.346 131.452 212.224 144.931" stroke="#DBFFD4" stroke-width="2"/>
<path d="M442.913 122.376C462.319 106.461 484.67 94.5244 508.689 87.2471C532.708 79.9699 557.926 77.4948 582.901 79.9632" stroke="#DBFFD4" stroke-width="2"/>
<path d="M455.41 137.593C472.815 123.318 492.861 112.612 514.404 106.085C535.947 99.5581 558.564 97.3383 580.965 99.5522" stroke="#DBFFD4" stroke-width="2"/>
<path d="M467.906 152.84C483.31 140.207 501.052 130.731 520.119 124.954C539.185 119.178 559.203 117.213 579.028 119.172" stroke="#DBFFD4" stroke-width="2"/>
<path d="M480.387 168.072C493.791 157.079 509.228 148.835 525.818 143.808C542.408 138.782 559.826 137.072 577.076 138.777" stroke="#DBFFD4" stroke-width="2"/>
<path d="M575.6 138.521C600.53 141.41 625.786 139.36 649.924 132.488C674.063 125.617 696.611 114.058 716.283 98.4724" stroke="#DBFFD4" stroke-width="2"/>
<path d="M577.875 118.966C600.235 121.557 622.887 119.719 644.537 113.556C666.187 107.393 686.41 97.0257 704.054 83.0467" stroke="#DBFFD4" stroke-width="2"/>
<path d="M580.174 99.388C599.964 101.681 620.012 100.054 639.173 94.5994C658.334 89.1448 676.233 79.9696 691.848 67.5975" stroke="#DBFFD4" stroke-width="2"/>
<path d="M582.395 79.8254C599.615 81.8208 617.059 80.405 633.731 75.6588C650.403 70.9127 665.978 62.9291 679.565 52.164" stroke="#DBFFD4" stroke-width="2"/>
<path d="M716.867 98.1981C736.632 82.7304 753.156 63.5213 765.497 41.6675C777.837 19.8136 785.753 -4.25685 788.791 -29.1697" stroke="#DBFFD4" stroke-width="2"/>
<path d="M703.672 83.6359C721.399 69.7629 736.22 52.5343 747.288 32.9336C758.356 13.3329 765.456 -8.25589 768.181 -30.6002" stroke="#DBFFD4" stroke-width="2"/>
<path d="M691.555 68.0815C707.244 55.8032 720.361 40.555 730.157 23.2075C739.953 5.86 746.237 -13.2471 748.648 -33.0229" stroke="#DBFFD4" stroke-width="2"/>
<path d="M679.384 52.6052C693.035 41.9217 704.448 28.654 712.972 13.5596C721.496 -1.53479 726.963 -18.1602 729.061 -35.3675" stroke="#DBFFD4" stroke-width="2"/>
<path d="M342.004 212.301C316.986 210.307 292.606 203.404 270.255 191.987C247.905 180.57 228.022 164.863 211.742 145.762" stroke="#DBFFD4" stroke-width="2"/>
<path d="M343.95 193.053C321.511 191.264 299.644 185.073 279.598 174.833C259.552 164.593 241.72 150.505 227.118 133.373" stroke="#DBFFD4" stroke-width="2"/>
<path d="M345.52 173.429C325.661 171.846 306.308 166.366 288.566 157.304C270.825 148.241 255.042 135.772 242.119 120.61" stroke="#DBFFD4" stroke-width="2"/>
<path d="M347.106 153.821C329.827 152.444 312.987 147.676 297.55 139.79C282.113 131.905 268.38 121.056 257.135 107.863" stroke="#DBFFD4" stroke-width="2"/>
<path d="M481.314 167.446C462.213 183.726 440.092 196.084 416.215 203.815C392.338 211.546 367.172 214.499 342.154 212.504" stroke="#DBFFD4" stroke-width="2"/>
<path d="M468.497 152.461C451.365 167.063 431.526 178.147 410.11 185.081C388.695 192.015 366.124 194.663 343.685 192.874" stroke="#DBFFD4" stroke-width="2"/>
<path d="M455.759 137.453C440.596 150.376 423.037 160.186 404.084 166.323C385.13 172.46 365.153 174.804 345.294 173.22" stroke="#DBFFD4" stroke-width="2"/>
<path d="M442.981 122.484C429.788 133.729 414.509 142.265 398.018 147.605C381.526 152.944 364.144 154.984 346.864 153.606" stroke="#DBFFD4" stroke-width="2"/>
<g filter="url(#filter0_d_660_3824)">
<circle cx="253.5" cy="172.5" r="16.5" fill="white"/>
<circle cx="253.5" cy="172.5" r="16" stroke="#55CE5B"/>
</g>
<g filter="url(#filter1_d_660_3824)">
<circle cx="198.5" cy="172.5" r="16.5" fill="white"/>
<circle cx="198.5" cy="172.5" r="16" stroke="#55CE5B"/>
</g>
<g filter="url(#filter2_d_660_3824)">
<circle cx="146.5" cy="172.5" r="16.5" fill="white"/>
<circle cx="146.5" cy="172.5" r="16" stroke="#55CE5B"/>
</g>
</g>
<defs>
<filter id="filter0_d_660_3824" x="237" y="156" width="35" height="34" filterUnits="userSpaceOnUse" color-interpolation-filters="sRGB">
<feFlood flood-opacity="0" result="BackgroundImageFix"/>
<feColorMatrix in="SourceAlpha" type="matrix" values="0 0 0 0 0 0 0 0 0 0 0 0 0 0 0 0 0 0 127 0" result="hardAlpha"/>
<feOffset dx="2" dy="1"/>
<feComposite in2="hardAlpha" operator="out"/>
<feColorMatrix type="matrix" values="0 0 0 0 0.333333 0 0 0 0 0.807843 0 0 0 0 0.356863 0 0 0 1 0"/>
<feBlend mode="normal" in2="BackgroundImageFix" result="effect1_dropShadow_660_3824"/>
<feBlend mode="normal" in="SourceGraphic" in2="effect1_dropShadow_660_3824" result="shape"/>
</filter>
<filter id="filter1_d_660_3824" x="182" y="156" width="34" height="34" filterUnits="userSpaceOnUse" color-interpolation-filters="sRGB">
<feFlood flood-opacity="0" result="BackgroundImageFix"/>
<feColorMatrix in="SourceAlpha" type="matrix" values="0 0 0 0 0 0 0 0 0 0 0 0 0 0 0 0 0 0 127 0" result="hardAlpha"/>
<feOffset dx="1" dy="1"/>
<feComposite in2="hardAlpha" operator="out"/>
<feColorMatrix type="matrix" values="0 0 0 0 0.333333 0 0 0 0 0.807843 0 0 0 0 0.356863 0 0 0 1 0"/>
<feBlend mode="normal" in2="BackgroundImageFix" result="effect1_dropShadow_660_3824"/>
<feBlend mode="normal" in="SourceGraphic" in2="effect1_dropShadow_660_3824" result="shape"/>
</filter>
<filter id="filter2_d_660_3824" x="130" y="156" width="37" height="36" filterUnits="userSpaceOnUse" color-interpolation-filters="sRGB">
<feFlood flood-opacity="0" result="BackgroundImageFix"/>
<feColorMatrix in="SourceAlpha" type="matrix" values="0 0 0 0 0 0 0 0 0 0 0 0 0 0 0 0 0 0 127 0" result="hardAlpha"/>
<feOffset dx="4" dy="3"/>
<feComposite in2="hardAlpha" operator="out"/>
<feColorMatrix type="matrix" values="0 0 0 0 0.333333 0 0 0 0 0.807843 0 0 0 0 0.356863 0 0 0 1 0"/>
<feBlend mode="normal" in2="BackgroundImageFix" result="effect1_dropShadow_660_3824"/>
<feBlend mode="normal" in="SourceGraphic" in2="effect1_dropShadow_660_3824" result="shape"/>
</filter>
<clipPath id="clip0_660_3824">
<rect width="785" height="217" fill="white"/>
</clipPath>
</defs>
</svg>
