<svg width="154" height="56" viewBox="0 0 154 56" fill="none" xmlns="http://www.w3.org/2000/svg">
<g clip-path="url(#clip0_560_1330)">
<path d="M150.815 24.8106C149.623 31.7609 144.218 33.4535 138.395 35.0392L135.931 38.4073C135.65 37.0165 135.497 36.2619 135.269 35.1347H125.384C125.079 29.2429 124.998 23.672 125.342 18.1413C125.435 16.6378 126.765 15.2107 128.024 13.8542C129.285 19.3334 128.411 24.8298 129.098 30.4942H137.203V15.7628L141.019 12.3125V25.2692C144.371 23.0225 147.334 20.5847 150.815 24.8106Z" fill="#A3EBA7"/>
<path d="M143.37 26.5901C142.569 26.8716 141.853 27.3131 141.234 27.8217C139.764 29.0313 140.751 31.2578 142.565 30.6778C143.551 30.3625 144.338 29.7919 144.947 29.1349C146.117 27.8732 144.994 26.0201 143.37 26.5901Z" fill="#F9FEF1"/>
<path d="M25.375 33.3168C26.4755 32.7131 27.5411 31.6738 28.6822 31.584C33.1846 31.2325 36.7374 29.5054 39.0311 24.7198L40.7234 29.878C45.309 31.6184 48.7187 31.2344 52.4088 28.5215V30.7854C56.594 30.6746 60.7444 31.1675 65.5949 28.6839L59.6556 27.8624C59.9573 25.0407 62.1176 24.2211 64.4539 23.4168V14.9192L68.0028 12C68.7029 16.5144 68.8402 20.2665 67.3065 24.5077L69.7453 25.9558C69.7009 28.6534 68.2561 29.8703 66.7689 31.03C63.0768 33.9128 58.8026 35.061 54.161 35.0648C50.701 35.0648 47.2391 35.0152 43.7811 35.0801C41.3094 35.1279 39.1491 34.656 37.8088 31.8228C34.2057 36.2168 30.0476 35.9035 25.7425 34.5815C25.6213 34.1612 25.4988 33.7396 25.375 33.3168Z" fill="#A3EBA7"/>
<path d="M8.42036 24.1795C7.86916 25.4003 7.25994 26.602 6.77837 27.8476C5.27951 31.6971 6.95824 34.41 11.068 34.8513C14.5261 35.2219 16.4349 34.7366 20.3765 32.3677C19.5758 32.0047 18.984 31.7201 18.3806 31.4679C17.7249 31.1947 17.0558 30.9501 16.4833 30.7285C15.4699 26.963 16.5819 24.5501 20.5177 21.7265C23.4187 19.6422 24.3528 19.5849 27.3158 21.5985C26.8 22.7448 26.2482 23.9706 25.6602 25.2761C23.4148 25.2952 20.9412 23.2778 19.3766 26.4472L24.4476 28.4704C24.1826 33.9209 19.9703 38.313 14.2998 39.2529C13.5825 39.3664 12.858 39.4302 12.1317 39.444C5.24663 39.635 2.12318 35.4321 4.61807 29.1811C5.37234 27.2897 6.56369 25.5703 7.55391 23.7707L8.42036 24.1795Z" fill="#A3EBA7"/>
<path d="M92.3241 32.9877C95.5036 36.1763 98.5709 36.629 101.776 35.4541C103.862 34.6899 106.247 33.7901 106.003 30.9187L102.037 29.0541C102.756 26.0299 103.897 24.0124 106.292 22.8203C109.386 24.1328 109.579 26.7214 109.355 29.354C108.862 35.158 102.973 40.5244 97.4241 40.3754C91.8754 40.2264 89.5932 37.2346 90.9818 31.9255C91.125 31.3772 91.2816 30.8327 91.4363 30.2672C89.3089 28.8822 87.9145 30.9932 86.1622 31.1938C86.0133 27.1131 88.6339 25.3574 94.3335 25.942L92.3241 32.9877Z" fill="#A3EBA7"/>
<path d="M76.7482 13.4219C76.7482 17.3058 76.7346 20.2651 76.7482 23.2244C76.7617 25.2342 76.7385 27.2497 76.8739 29.2538C77.0325 31.6265 76.2666 33.4338 73.7079 34.7463C73.5435 33.8828 73.2921 33.1492 73.2824 32.4155C73.2321 27.819 73.1973 23.2225 73.234 18.6278C73.2572 16.1022 73.3269 16.1041 76.7482 13.4219Z" fill="#A3EBA7"/>
<path d="M106.656 38.8549C112.321 35.2671 119.343 35.6071 122.985 29.125C122.471 37.5424 115.083 42.0129 106.656 38.8549Z" fill="#A3EBA7"/>
<path d="M62.8007 41.401L59.0312 38.1914L62.0657 35.2188L66.6184 37.815L62.8007 41.401Z" fill="#A3EBA7"/>
<path d="M8.76562 44.0002C9.2588 42.8157 9.35937 41.7287 9.88929 41.4574C11.7518 40.5021 13.7399 39.6921 15.9641 40.2232C15.6043 43.3029 15.6043 43.3029 8.76562 44.0002Z" fill="#A3EBA7"/>
<path d="M51.7384 17.8516L53.9722 20.3791L50.8275 22.9926L48.1953 20.7L51.7384 17.8516Z" fill="#A3EBA7"/>
<path d="M110.082 15.2812L112.316 17.8069L109.171 20.4184L106.539 18.1259L110.082 15.2812Z" fill="#A3EBA7"/>
<path d="M104.305 15.2812L106.541 17.8069L103.39 20.4184L100.758 18.1259L104.305 15.2812Z" fill="#A3EBA7"/>
</g>
<defs>
<clipPath id="clip0_560_1330">
<rect width="147.048" height="32" fill="white" transform="translate(3.76562 12)"/>
</clipPath>
</defs>
</svg>
